<svg xmlns="http://www.w3.org/2000/svg" width="23.906" height="23.906" viewBox="0 0 23.906 23.906">
  <path id="icons8-app-store-ios-64" d="M29.485,14c7.81,0,8.422.611,8.422,8.422v7.063c0,7.81-.611,8.422-8.422,8.422H22.422c-7.81,0-8.422-.611-8.422-8.422V22.422c0-7.81.611-8.422,8.422-8.422ZM22.4,30.2l.714-1.245a1.309,1.309,0,0,0-1.425-.425l-.545.949a.724.724,0,0,0,1.256.72Zm5.113-2.021a1.051,1.051,0,0,0-.83-1.447H24.393l3.146-5.482a.724.724,0,0,0-1.255-.72l-.331.576-.331-.576a.724.724,0,0,0-1.255.72l.751,1.31-2.394,4.172H20.793a.724.724,0,1,0,0,1.447Zm3.6,0a.724.724,0,1,0,0-1.447H29.181l-2.154-3.754a2.187,2.187,0,0,0-.343,2.309L29.5,30.195a.724.724,0,0,0,1.255-.72l-.747-1.3Z" transform="translate(-14 -14)"/>
</svg>
