<svg xmlns="http://www.w3.org/2000/svg" width="82.563" height="35.675" viewBox="0 0 82.563 35.675">
  <g id="Group_6619" data-name="Group 6619" transform="translate(-865 -1145.628)">
    <path id="Path_2070" data-name="Path 2070" d="M87.5,50.7l-17.72-2.611,2.352,9.947Z" transform="translate(852.234 1114.574)" fill="#d12053"/>
    <path id="Path_2071" data-name="Path 2071" d="M87.5,46.245,74.147,28.769,69.782,43.625Z" transform="translate(852.234 1119.032)" fill="#e2136e"/>
    <path id="Path_2072" data-name="Path 2072" d="M66.146,42.78,52.155,25.945l18.32,2.063Z" transform="translate(855.458 1119.684)" fill="#d12053"/>
    <path id="Path_2073" data-name="Path 2073" d="M59.732,36.608l-7.773-6.9h2.048Z" transform="translate(855.494 1118.815)" fill="#9e1638"/>
    <path id="Path_2074" data-name="Path 2074" d="M94.17,40.44l-3.292,8.4L85.547,41.9Z" transform="translate(849.35 1116.339)" fill="#d12053"/>
    <path id="Path_2075" data-name="Path 2075" d="M75.19,58.427l12.9-4.876L88.635,52Z" transform="translate(851.244 1113.672)" fill="#e2136e"/>
    <path id="Path_2076" data-name="Path 2076" d="M62.556,66.844l5.528-18.258,2.8,11.875Z" transform="translate(853.556 1114.46)" fill="#9e1638"/>
    <path id="Path_2077" data-name="Path 2077" d="M79.03,40.528,77.67,44l4.893-.075ZM0,41.917c.242.017.475.059.734.059s.465-.042.734-.059V49.3a3.669,3.669,0,0,1,3.175-2.055c2.585,0,3.695,2.409,3.695,4.624,0,2.652-1.5,5.188-4.142,5.188A2.928,2.928,0,0,1,1.6,55.653c-.438.362-.832.8-1.253,1.2H.018ZM1.431,52.782c0,2.156.966,3.655,2.567,3.655,2.066,0,2.737-2.619,2.737-4.472,0-2.156-.752-3.849-2.549-3.874-2.1-.017-2.755,2.316-2.755,4.691" transform="translate(865 1116.319)" fill="#e2136e"/>
    <path id="Path_2078" data-name="Path 2078" d="M17.378,47.106l-1.556,1.887c1.467,2.012,2.979,3.983,4.455,6.022l1.485,2.206v.109c-.367-.025-.7-.067-1-.067s-.7.042-1.02.067a22.852,22.852,0,0,0-1.262-2l-4.007-5.584c-.09-.084-.3-.16-.3-.067v7.646c-.3-.025-.555-.067-.806-.067s-.546.042-.8.067v-15c.259.017.537.068.8.068s.51-.051.806-.068V49.1c0,.135.277.042.456-.135A11.515,11.515,0,0,0,15.6,47.89l4.509-5.567c.242.017.474.068.734.068s.456-.051.716-.068Zm12.12,8.54c0,.783-.053,1.179,1.029.918V57a3.083,3.083,0,0,1-.554.2c-.949.177-1.744.017-1.887-1.154l-.162.177a3.436,3.436,0,0,1-2.71,1.255,2.384,2.384,0,0,1-2.433-2.442c0-2.274,1.673-2.577,3.382-2.872,1.449-.261,1.941-.379,1.941-1.339,0-1.482-.769-2.332-2.137-2.332a2.3,2.3,0,0,0-2.182,1.372h-.2V48.757a4.919,4.919,0,0,1,2.96-1.095c1.923,0,2.97,1.095,2.97,3.352Zm-1.458-3.293-.644.135c-1.244.262-3.113.455-3.113,2.274a1.658,1.658,0,0,0,1.789,1.886,2.35,2.35,0,0,0,1.485-.766c.134-.143.5-.488.5-.632Zm4.723,3.032a2.664,2.664,0,0,0,2.1,1.482,1.836,1.836,0,0,0,1.8-1.819c0-2.695-4.33-.943-4.33-4.429a2.8,2.8,0,0,1,2.987-2.948,4.043,4.043,0,0,1,2.075.514,11.24,11.24,0,0,0-.438,1.415h-.17a1.918,1.918,0,0,0-1.556-1.322,1.577,1.577,0,0,0-1.673,1.659c0,2.552,4.329,1.2,4.329,4.388a3.16,3.16,0,0,1-3.372,3.149,4.441,4.441,0,0,1-2.29-.632,10.377,10.377,0,0,0,.385-1.465Zm7.6-13.054c.242.017.483.059.734.059s.465-.042.733-.059V49.6a3.253,3.253,0,0,1,2.952-1.929c2.129,0,2.952,1.372,2.952,3.891v5.777c-.277-.025-.492-.058-.734-.058s-.492.042-.733.058V52.016c0-2.206-.475-3.309-2.031-3.309-1.655,0-2.4,1.12-2.4,3.192v5.44c-.277-.025-.492-.058-.733-.058s-.492.042-.734.058Z" transform="translate(862.703 1115.905)" fill="#231f20"/>
  </g>
</svg>
