<svg xmlns="http://www.w3.org/2000/svg" xmlns:xlink="http://www.w3.org/1999/xlink" width="33.76" height="39.09" viewBox="0 0 33.76 39.09">
  <defs>
    <clipPath id="clip-path">
      <rect id="Rectangle_3109" data-name="Rectangle 3109" width="33.76" height="39.09" fill="#f85606"/>
    </clipPath>
    <clipPath id="clip-path-2">
      <rect id="Rectangle_1" data-name="Rectangle 1" width="23.054" height="18.163" fill="none"/>
    </clipPath>
  </defs>
  <g id="Group_6343" data-name="Group 6343" transform="translate(-151 -990)">
    <g id="Group_6341" data-name="Group 6341" transform="translate(151 990)">
      <g id="Group_6340" data-name="Group 6340" clip-path="url(#clip-path)">
        <path id="Path_1988" data-name="Path 1988" d="M33.76,6.5v6.3c0,23.279-16.88,26.286-16.88,26.286S0,36.083,0,12.8V6.5A24.311,24.311,0,0,0,16.88,0,25.483,25.483,0,0,0,33.76,6.5" fill="#f85606"/>
      </g>
    </g>
    <g id="Group_6342" data-name="Group 6342" transform="translate(157 1001)">
      <path id="Path_1" data-name="Path 1" d="M126.956,148.057l-1.714,2.255v.75l1.729,2.27h1.571l-2.119-2.691,2.044-2.585Z" transform="translate(-114.341 -135.169)" fill="#252328"/>
      <path id="Path_2" data-name="Path 2" d="M228.664,148.057l-1.714,2.255v.75l1.729,2.27h1.571l-2.119-2.691,2.044-2.585Z" transform="translate(-207.195 -135.169)" fill="#252328"/>
      <g id="Group_2" data-name="Group 2">
        <g id="Group_1" data-name="Group 1" clip-path="url(#clip-path-2)">
          <path id="Path_3" data-name="Path 3" d="M91.575,153.327H90.124l-.845-1.534-.251-.457-.289-.524-.212-.384h.989c.48,0,.706-.249.706-.662,0-.391-.226-.646-.706-.646h-.989v-1.068h1.064c1.292,0,1.938.743,1.938,1.66a1.536,1.536,0,0,1-1.172,1.526Z" transform="translate(-80.821 -135.165)" fill="#fff"/>
          <path id="Path_4" data-name="Path 4" d="M58.359,188.491H57l-.315-.931H55.251a3,3,0,0,0,.356-.866c.01-.042.02-.083.029-.126h2.027Z" transform="translate(-50.442 -170.328)" fill="#fff"/>
          <path id="Path_5" data-name="Path 5" d="M6.008,148.047H4.519l-.129.357-.21.58-.856,2.365a1.09,1.09,0,0,1-.835.778,1.96,1.96,0,0,1-.6.085H1.286v-3.066h.608a1.407,1.407,0,0,1,1.391.782l.485-1.336a2.935,2.935,0,0,0-1.792-.543H0v5.277H2.1a2.376,2.376,0,0,0,.658-.083c.048-.012.094-.026.137-.04a2.714,2.714,0,0,0,1.385-1.144,4.029,4.029,0,0,0,.447-.967l.216-.673.21-.629.105-.315.457,1.351h1.3Z" transform="translate(0 -135.16)" fill="#fff"/>
          <path id="Path_6" data-name="Path 6" d="M177.7,150.819h-1.3l1-2.771H178.9l1.908,5.276h-1.345l-1.3-3.855Z" transform="translate(-161.052 -135.161)" fill="#252328"/>
          <path id="Path_7" data-name="Path 7" d="M166.691,186.56h2l.337.992H167.67l-.315.931h-1.361Z" transform="translate(-151.545 -170.321)" fill="#252328"/>
          <path id="Path_8" data-name="Path 8" d="M88.2,28.924l-.576-4.268a1.506,1.506,0,0,0-1.492-1.305H80.954a1.5,1.5,0,0,0-1.491,1.305l-.576,4.268a.632.632,0,0,0,.626.716H87.57a.632.632,0,0,0,.626-.716m-5.607-2.8a.869.869,0,0,1,.956.124.871.871,0,0,1,.957-.124,1.044,1.044,0,0,1,.262.729,1.938,1.938,0,0,1,0,.385H82.327a1.961,1.961,0,0,1,0-.385,1.041,1.041,0,0,1,.262-.729m.953,3.021a1.1,1.1,0,0,1-1.078-.874H84.62a1.1,1.1,0,0,1-1.077.874m0-1.162c-1.454,0-2.633-.221-2.633-.493,0-.163.427-.309,1.085-.4,0,.06,0,.121.01.18l.018.182a.123.123,0,0,0,.121.11h2.8a.123.123,0,0,0,.121-.11l.018-.182c.006-.059.009-.119.01-.178.654.09,1.079.234,1.079.4,0,.272-1.179.493-2.632.493" transform="translate(-72.016 -21.318)" fill="#fff"/>
          <path id="Path_9" data-name="Path 9" d="M144.675,107.879l-.006-.047a.779.779,0,0,0-.772-.675h-1.811a1.7,1.7,0,0,0-1.7,1.7v.73h2.8a1.507,1.507,0,0,0,1.494-1.709" transform="translate(-128.164 -97.83)" fill="#fff"/>
          <path id="Path_10" data-name="Path 10" d="M77.612,107.157H75.8a.779.779,0,0,0-.773.678l-.006.046a1.51,1.51,0,0,0,1.5,1.707h2.792v-.73a1.7,1.7,0,0,0-1.7-1.7" transform="translate(-68.482 -97.83)" fill="#fff"/>
          <path id="Path_11" data-name="Path 11" d="M115.484,2.628c-.172-1.548-.978-2.65-1.655-2.628-.642.019-1.385,1.09-1.5,2.631a.3.3,0,1,0,.256.016c.113-1.448.8-2.377,1.255-2.39.49-.013,1.23.9,1.393,2.4a.293.293,0,1,0,.255-.025" transform="translate(-102.383 0)" fill="#000002"/>
        </g>
      </g>
    </g>
  </g>
</svg>
