<svg id="Group_6333" data-name="Group 6333" xmlns="http://www.w3.org/2000/svg" xmlns:xlink="http://www.w3.org/1999/xlink" width="46.901" height="23.216" viewBox="0 0 46.901 23.216">
  <defs>
    <clipPath id="clip-path">
      <rect id="Rectangle_3105" data-name="Rectangle 3105" width="46.901" height="23.216" transform="translate(0 0)" fill="#f85606"/>
    </clipPath>
  </defs>
  <g id="Group_6332" data-name="Group 6332" transform="translate(0 0)" clip-path="url(#clip-path)">
    <path id="Path_1931" data-name="Path 1931" d="M46.769,14.067a2.285,2.285,0,0,0-.975-1.456c-.766-.509-1.549-.988-2.333-1.468-1.064-.651-2.145-1.273-3.25-1.853a31.812,31.812,0,0,1-4.731-3.01c-2.1-1.629-4.288-3.133-6.494-4.611a3.863,3.863,0,0,0-.862-.539c-.379-.124-.51-.459-.768-.68-.043-.037-.093-.066-.137-.1a2.292,2.292,0,0,0-2.558.082,1.045,1.045,0,0,1-.719.214c-.783,0-1.566-.019-2.35-.052C20.378.542,19.164.516,17.949.471,16.44.414,14.932.341,13.423.291,12.368.256,11.312.248,10.257.225,8.622.189,6.988.138,5.353.175A6.972,6.972,0,0,0,3.4.431,2.987,2.987,0,0,0,1.142,2.774a9.708,9.708,0,0,0-.18,1.073C.885,4.763.817,5.679.748,6.6a.649.649,0,0,1-.123.415,1.606,1.606,0,0,0-.342.979C.189,9.052.1,10.115.018,11.178a2.4,2.4,0,0,0,.058.913,1.773,1.773,0,0,1,.052.7C.05,13.69,0,14.584,0,15.482a12.372,12.372,0,0,0,.122,2.071A1.879,1.879,0,0,0,2.629,19.03a1.806,1.806,0,0,1,.5-.082c.17-.013.207.061.217.215a4.235,4.235,0,0,0,.4,1.5A4.872,4.872,0,0,0,4.786,22.08,4.507,4.507,0,0,0,6.616,23a4.193,4.193,0,0,0,4.14-1.254.552.552,0,0,1,.079-.059,4.427,4.427,0,0,0,.888-1.629c.038-.142.125-.134.229-.134.374,0,.749,0,1.123,0,6.966.093,13.931.126,20.9.152.318,0,.636,0,.953-.008a.191.191,0,0,1,.225.147,4.482,4.482,0,0,0,.9,1.543,4.3,4.3,0,0,0,2.082,1.221,4.216,4.216,0,0,0,3.67-.741c.036-.026.075-.047.114-.07a4.326,4.326,0,0,0,1.47-2.428c.043-.214.138-.238.318-.235.625.01,1.25,0,1.874.012a1.009,1.009,0,0,0,.864-.452,1.351,1.351,0,0,0,.249-.661c.113-.845.138-1.7.188-2.546a6.01,6.01,0,0,0-.113-1.793M27.8,1.669c0,.011,0,.022.008.033.154.535.114.586-.439.56l-.068,0a3.285,3.285,0,0,1-.542-.042A.179.179,0,0,1,26.594,2c.008-.09.032-.179.032-.269,0-.191.1-.254.276-.254a6.1,6.1,0,0,0,.612-.027.237.237,0,0,1,.285.217M26.6.292a1.44,1.44,0,0,1,1.017.931A2,2,0,0,1,26.9,1.3c-.375.011-.422.056-.452.436-.044.563.032.66.608.667a9.715,9.715,0,0,1,1.725.133.828.828,0,0,1,.347.106.518.518,0,0,1-.4.087q-1.907.012-3.814.02a7.507,7.507,0,0,0-.95.043c-.235.031-.264-.006-.252-.234A2.346,2.346,0,0,1,26.6.292m5.237,7.2c0-.056,0-.114.007-.169.036-.254.067-.262.321-.242a4.354,4.354,0,0,1,.876.255.277.277,0,0,1,.221.23,12.777,12.777,0,0,1,.188,1.271,1.663,1.663,0,0,1,0,.2.257.257,0,0,1-.248.26,10.264,10.264,0,0,1-1.284-.028c-.11.005-.16-.079-.142-.186a13.351,13.351,0,0,0,.061-1.593m.774-.533a1.912,1.912,0,0,0-.6-.119c-.222-.007-.285.047-.322.261-.018.1-.019.2-.029.305-.005.05-.031.085-.084.085a.082.082,0,0,1-.093-.078,2.17,2.17,0,0,1-.036-.436A3.342,3.342,0,0,0,31.447,6c-.046-.267-.123-.344-.329-.361a.4.4,0,0,0-.444.335,1.4,1.4,0,0,0-.068.436c.006.145-.008.275-.206.276a.329.329,0,0,0-.255.151,5.549,5.549,0,0,0-.547.736,3.741,3.741,0,0,1-.811,1.04A.976.976,0,0,0,28.6,8.8a.639.639,0,0,1-.737.258,9.574,9.574,0,0,0-1.529-.067A.282.282,0,0,1,26,8.755a3.025,3.025,0,0,0-.659-1.133c.135-.153.368-.106.468-.287a.151.151,0,0,0-.022-.058c-.273-.274-.271-.27.042-.528a.631.631,0,0,1,.523-.187.211.211,0,0,0,.034,0,.988.988,0,0,0,.568-.2c.354-.258.85-.33,1.018-.833a6.4,6.4,0,0,0,.282-.871c.016-.088.049-.2.012-.267a1.277,1.277,0,0,1-.053-.693c0-.236,0-.472,0-.728a9.468,9.468,0,0,1,1.962,1.1c.576.4,1.135.832,1.7,1.255a3.6,3.6,0,0,1,1.235,1.632,1.131,1.131,0,0,1,.033.157,1.716,1.716,0,0,1-.526-.151M31.634,8.82a.134.134,0,0,1,0,.044,1.735,1.735,0,0,0-.017.226c.01.143-.062.173-.186.159s-.123-.094-.1-.192a1.432,1.432,0,0,0,.012-.236c0-.123.024-.228.183-.223.178.005.094.139.111.223m-.081-.46a1.111,1.111,0,0,1-.055-.605.086.086,0,0,1,.085-.086c.066,0,.1.047.1.108a.911.911,0,0,1-.133.583m-.592.283a1.7,1.7,0,0,0-.59.392.473.473,0,0,1-.4.13c-.305-.025-.612-.027-.917-.041a1.324,1.324,0,0,1-.427-.062c.152-.13.279-.24.407-.348a2.337,2.337,0,0,0,.721-.97,1.755,1.755,0,0,1,.766-.921c.057.23.057.23-.1.4.189.043.326-.068.476-.128.229-.09.352-.03.375.212a4.391,4.391,0,0,1-.02.95.435.435,0,0,1-.294.384m.179.443a.117.117,0,0,1-.123.13c-.112,0-.225,0-.338,0l-.024-.058c.092-.079.181-.161.277-.235a.142.142,0,0,1,.16-.022c.071.042.049.118.048.184m.135-2.459a.272.272,0,0,1-.4.26c-.063-.027-.069-.081-.071-.138a2.236,2.236,0,0,1,.086-.735c.031-.1.1-.188.218-.172.095.013.107.1.12.18a1.407,1.407,0,0,1,.048.423c0,.092,0,.137,0,.182M22.216,2.745c0-.1.042-.14.141-.14q.51,0,1.021,0c.1,0,.14.029.149.132a.884.884,0,0,1,0,.3,2.529,2.529,0,0,0,.422,2.131.583.583,0,0,1-.031.6.115.115,0,0,1-.086.034c-.218-.031-.337.12-.446.26a1.329,1.329,0,0,1-.6.474,1.4,1.4,0,0,0-.471.381c.016-1.369-.112-2.647-.1-3.929,0-.08,0-.159,0-.238m3.236.181a2.428,2.428,0,0,1,.609,0q.833,0,1.665,0c.259,0,.261,0,.276.256a3.619,3.619,0,0,1-.017.81,2.764,2.764,0,0,1-.765.046,1.4,1.4,0,0,0-.437.036.953.953,0,0,1-.864-.119c-.162-.077-.383-.086-.478-.232s.02-.327.028-.495a2.974,2.974,0,0,0-.018-.307m.379,3.6-.407.377c-.08.016-.116-.035-.153-.073A4.859,4.859,0,0,0,24.238,6c-.113-.066-.159-.123-.1-.265a4.238,4.238,0,0,0,.186-.581,1.171,1.171,0,0,1,.448-.686,4.977,4.977,0,0,1,.635.415c.269.169.535.342.806.507a.771.771,0,0,1,.337.322,1.053,1.053,0,0,0,.438.426c-.56.4-1.112.2-1.691.07.148.195.354.209.529.315m-.268.786c-.3.264-.326.262-.588.025a6.223,6.223,0,0,0-1.2-.813c-.1-.054-.2-.1-.288-.149-.025-.095.034-.14.072-.19.2-.259.2-.249.481-.086a4.3,4.3,0,0,1,1.066.824,4.473,4.473,0,0,0,.459.388m1.183-1.681a1.992,1.992,0,0,1-.3-.934c.008-.071.016-.149.028-.227a.232.232,0,0,1,.254-.217c.373,0,.746-.013,1.119-.007.2,0,.266.082.221.284a3.012,3.012,0,0,1-.439,1.129c-.282.4-.637.387-.886-.027M26.222,4.3c.085.035.086.1.074.164a2.818,2.818,0,0,0,.044.828c-.376-.247-.711-.469-1.048-.689-.123-.08-.25-.156-.375-.234-.058-.036-.125-.089-.187-.046-.2.145-.258-.02-.32-.15a.787.787,0,0,1-.066-.262c-.013-.14.008-.3.147-.35s.221.085.288.187c.117.179.225.364.345.56.153-.1.137-.246.2-.387.3.127.6.255.9.377M25.277,3.22a1.051,1.051,0,0,1-.095.4,1.081,1.081,0,0,1-.449-.136c-.376-.123-.621.055-.587.458a.761.761,0,0,0,.178.5.2.2,0,0,1,.024.318,2.669,2.669,0,0,0-.2.392A2.852,2.852,0,0,1,23.7,3.065c.032-.147.08-.194.226-.154a.515.515,0,0,0,.235.014,2.581,2.581,0,0,1,.846,0c.279.034.279.027.266.292m-2.8,3.808A.334.334,0,0,0,22.5,7c.539-.532.729-.549,1.371-.163a8.285,8.285,0,0,1,1.217.859,2.26,2.26,0,0,1,.675,1.244,9.376,9.376,0,0,1-1.174-.021c-.667-.029-1.333-.073-2-.11-.231-.013-.226-.011-.244-.251-.029-.384-.036-.768-.039-1.153a.433.433,0,0,1,.169-.382M.986,6.744c.132-1.07.161-2.15.322-3.218.042-.28.118-.554.176-.832A2.523,2.523,0,0,1,3.281.78,4.943,4.943,0,0,1,4.784.5C5.85.472,6.918.448,7.985.448c.886,0,1.771.037,2.656.06.235.006.243.01.242.259,0,.625-.019,1.249-.017,1.874q.022,5.434.052,10.869A.366.366,0,0,0,11,13.8a.712.712,0,0,0,.054-.4c.008-1.306.011-2.612.018-3.918q.018-3.271.04-6.542c0-.715-.006-1.431-.006-2.146,0-.27,0-.266.281-.254.261.011.523.015.784.015,1.647,0,3.291.111,4.936.176,1.044.042,2.086.112,3.132.114.681,0,.681.008.682.678q.01,5.878.021,11.756,0,1.38,0,2.76c0,.27,0,.274-.28.273-1.579,0-3.158-.012-4.736-.014-.6,0-1.2.007-1.806.015a.354.354,0,0,0-.342.5.148.148,0,0,0,.159.1c.1,0,.2.006.306.008q2.3.037,4.6.073c.624.011,1.249.033,1.873.039.172,0,.239.047.228.232-.018.306-.009.613-.009.919,0,.327.02.3-.322.3l-2.419-.008-4.873-.013c-.278,0-.291,0-.281-.275A4.694,4.694,0,0,0,8.82,13.5a5.421,5.421,0,0,0-4.657,1.6c-.073.071-.133.155-.207.243-.535-.433-1.057-.825-1.536-1.272a.829.829,0,0,1-.275-.6q-.024-.51-.069-1.019a.258.258,0,0,1,.085-.243.641.641,0,0,0,.207-.454,26.18,26.18,0,0,0,.213-4.041,1.781,1.781,0,0,0-.033-.235.579.579,0,0,0-.435-.471A2.884,2.884,0,0,0,1.171,6.9c-.111,0-.2,0-.185-.159m23.72,9.788c2.258.035,4.516.016,6.774.044a1.189,1.189,0,0,1,.5.085.137.137,0,0,1,.094.128.122.122,0,0,1-.11.111,1.135,1.135,0,0,1-.236.02c-.772,0-1.546.024-2.315-.023-.885-.053-1.77-.021-2.83-.058-.482,0-1.141.023-1.8,0-2.121-.087-4.244-.017-6.365-.075-1.373-.038-2.745-.029-4.118-.045-.068,0-.136,0-.2,0-.086,0-.115-.058-.111-.137a.113.113,0,0,1,.134-.117c.214.015.427.046.643.046,3.315,0,6.63-.02,9.945.031M.374,10.357c.05-.7.114-1.4.172-2.1a3.316,3.316,0,0,1,.139-.8.428.428,0,0,1,.454-.329,4.089,4.089,0,0,1,.777.079c.3.066.378.154.4.461a4.176,4.176,0,0,1,.035.645c-.016.214,0,.43,0,.646q-.074,1.361-.231,2.713a.477.477,0,0,1-.538.488c-.283.009-.567,0-.851-.009-.329-.009-.4-.071-.424-.4a9.871,9.871,0,0,1,.069-1.393m2.3,8.17c-.041.311-.053.272-.356.379A1.717,1.717,0,0,1,.4,17.584C.354,17.1.294,16.619.281,16.132c-.024-.885.047-1.767.082-2.649.013-.315.054-.631.06-.948,0-.129.052-.2.186-.165a5.576,5.576,0,0,0,1.017.047c.27.011.274.006.281.288.007.238.011.476.005.714a1.009,1.009,0,0,0,.352.813A14.14,14.14,0,0,0,3.8,15.5a4.823,4.823,0,0,0-1.078,2.73c-.006.1-.036.2-.049.3m4.922,4.288a3.915,3.915,0,0,1-3.952-4.008,3.972,3.972,0,1,1,3.952,4.008m5.036-3.472c-.106.361-.1.363-.488.357-.057,0-.114,0-.17,0a.11.11,0,0,1-.117-.131q.013-.2.029-.407a4.284,4.284,0,0,0-8.539-.688c-.011.121.012.254-.178.27-.241.019-.305-.035-.288-.282a4.817,4.817,0,0,1,2.04-3.688,5.041,5.041,0,0,1,5.027-.716,4.342,4.342,0,0,1,2.823,4.193,3.915,3.915,0,0,1-.137,1.1m21.546.447c-2.226-.007-4.452.012-6.678-.026-4.769-.083-9.538-.039-14.307-.06-.394,0-.394,0-.3-.386.011-.044.028-.086.039-.13.039-.162,0-.372.144-.471s.331-.025.5-.025c1.6,0,3.2-.025,4.8.018,2.85.077,5.7.012,8.548.067,2.554.049,5.109.038,7.663.055.278,0,.266.006.332.287a2.849,2.849,0,0,0,.124.671c-.33,0-.6,0-.869,0m8.981-.946a3.907,3.907,0,0,1-3.94,3.972,3.947,3.947,0,0,1-3.986-4.007,4,4,0,0,1,3.994-3.936,3.931,3.931,0,0,1,3.932,3.97m.2-1.047a4.284,4.284,0,0,0-8.4.483c-.018.145.007.3-.227.291s-.239-.007-.227-.253c.067-1.337.139-2.674.2-4.011.006-.126.111-.353-.1-.362-.169-.007-.1.219-.107.342-.055,1.2-.1,2.4-.152,3.606-.008.214.027.478-.1.62s-.386.046-.588.046q-3.339-.008-6.678-.025c-1.851-.01-3.7-.027-5.554-.041-.312,0-.3.013-.3-.3s.015-.636.012-.954c0-.143.045-.209.195-.2.182.009.363,0,.545.006l9.676.089a1.656,1.656,0,0,0,.441-.026.317.317,0,0,0,.2-.541.467.467,0,0,0-.405-.21q-.392,0-.784,0-3.51-.008-7.019-.018c-.863,0-1.727-.018-2.589-.03-.243,0-.242-.008-.232-.249.035-.818-.006-1.635-.009-2.453q-.025-6.184-.03-12.368c0-.057,0-.113,0-.17C21.12.94,21.188.9,21.314.9c.284.009.57-.008.851.02a16.541,16.541,0,0,0,1.924,0,.549.549,0,0,1-.142.265,2.8,2.8,0,0,0-.347.774c-.115.429-.11.426-.574.4-.227-.012-.454-.01-.681,0-.375.008-.411.047-.4.415.039,1.089.087,2.177.118,3.266.026.93.038,1.861.043,2.792,0,.142.056.181.17.194.147.016.293.038.44.044,1.282.056,2.564.1,3.845.165,1.213.058,2.426.132,3.639.191q1.446.071,2.893.122c.441.015.541-.079.569-.521a6.582,6.582,0,0,0-.231-1.679A3.719,3.719,0,0,0,31.861,5,24.786,24.786,0,0,0,29.6,3.414a7.383,7.383,0,0,0-.883-.445c.151-.034.268-.054.38-.089a.264.264,0,0,0,.209-.241c.006-.14-.107-.2-.217-.225a6.362,6.362,0,0,0-.906-.141c-.087-.011-.166-.024-.158-.13a2.721,2.721,0,0,0-.145-.886,1.517,1.517,0,0,1,.5.278c2.549,1.763,5.1,3.529,7.56,5.412a27.519,27.519,0,0,0,2.914,1.887c1.678.976,3.4,1.883,5.04,2.916.615.387,1.23.774,1.837,1.173a2.148,2.148,0,0,1,.825,1.5c.024.11-.041.139-.132.144s-.182.006-.273.015c-.366.039-.494.16-.552.528-.111.718-.181,1.44-.227,2.165a2.518,2.518,0,0,0,0,.813c.037.145-.073.172-.184.171q-.528,0-1.056-.016c-.09,0-.181-.017-.271-.022-.4-.023-.4-.022-.505-.431m2.018,1.509q-.782,0-1.564-.015c-.316-.005-.32-.013-.322-.33,0-.023,0-.046,0-.068,0-.519,0-.537.524-.461a7.35,7.35,0,0,0,1.186.05,6.458,6.458,0,0,0,.772-.081,1.057,1.057,0,0,0,.416-.229.982.982,0,0,1-1.013,1.135m1.243-4.1c-.035.791-.087,1.582-.138,2.372a.711.711,0,0,1-.533.591.964.964,0,0,1-.373.039,2.558,2.558,0,0,1,.026-.876c.054-.722.141-1.44.241-2.158a.363.363,0,0,1,.3-.354c.43-.1.5-.059.477.385" transform="translate(0 0.001)" fill="#f85606"/>
    <path id="Path_1932" data-name="Path 1932" d="M26.143,118.177a4.317,4.317,0,0,0,3.172.839,4.446,4.446,0,0,0,2.731-1.44.2.2,0,0,1-.059-.055.576.576,0,0,0-.079.059,4.193,4.193,0,0,1-4.14,1.254,4.5,4.5,0,0,1-1.829-.916.424.424,0,0,0,.205.259" transform="translate(-21.152 -95.837)" fill="#f85606"/>
    <path id="Path_1933" data-name="Path 1933" d="M197.161,119.16a4.3,4.3,0,0,1-2.082-1.221c-.024.01-.048.017-.072.025.069.071.142.137.213.206a4.321,4.321,0,0,0,5.447.466.621.621,0,0,0,.278-.288c-.038.023-.078.043-.113.07a4.216,4.216,0,0,1-3.671.741" transform="translate(-159.026 -96.178)" fill="#f85606"/>
    <path id="Path_1934" data-name="Path 1934" d="M5.519,8.887a2.893,2.893,0,0,1,.942.108.579.579,0,0,1,.435.471,1.755,1.755,0,0,1,.033.235,26.157,26.157,0,0,1-.213,4.041.641.641,0,0,1-.207.454.258.258,0,0,0-.085.243q.045.509.069,1.019a.83.83,0,0,0,.275.6c.479.447,1,.839,1.536,1.272.074-.088.134-.172.207-.243a5.421,5.421,0,0,1,4.657-1.6,4.7,4.7,0,0,1,4.216,4.695c-.01.273,0,.274.281.275l4.872.013,2.419.008c.342,0,.322.023.322-.3,0-.307-.008-.614.009-.919.011-.184-.056-.23-.228-.232-.625-.006-1.249-.029-1.873-.039q-2.3-.039-4.6-.073c-.1,0-.2-.007-.306-.008a.148.148,0,0,1-.159-.1.354.354,0,0,1,.342-.5c.6-.007,1.2-.015,1.806-.015,1.579,0,3.158.011,4.736.014.279,0,.28,0,.28-.273q0-1.38,0-2.76-.01-5.878-.021-11.756c0-.671,0-.677-.682-.678-1.046,0-2.088-.073-3.132-.114-1.645-.066-3.288-.18-4.936-.176-.261,0-.523,0-.784-.015-.277-.012-.281-.016-.281.254,0,.715.01,1.431.006,2.147q-.017,3.271-.04,6.542c-.007,1.306-.01,2.612-.018,3.918a.714.714,0,0,1-.054.4.366.366,0,0,1-.077-.291q-.028-5.434-.052-10.869c0-.625.015-1.25.017-1.874,0-.249-.008-.253-.242-.259-.885-.023-1.77-.061-2.656-.06-1.067,0-2.135.024-3.2.057a4.935,4.935,0,0,0-1.5.275,2.522,2.522,0,0,0-1.8,1.915c-.058.277-.134.552-.176.832-.161,1.067-.19,2.147-.322,3.218-.019.159.074.162.185.159m18.109,3.518c.016-.255.114-.361.308-.371a.435.435,0,0,1,.5.353c.019.293,0,.588,0,.882h.012c0,.26.007.521,0,.78a.442.442,0,0,1-.266.435c-.3.129-.49.04-.535-.286a5.822,5.822,0,0,1-.055-.777c0-.339.015-.678.036-1.016M17.574,6.428c.008-.282,0-.283.28-.321a2.478,2.478,0,0,1,.3-.023q1.958-.028,3.917-.052c.347,0,.381.024.4.385q.038.646.052,1.292c.014.6.019,1.2.027,1.805,0,.1-.012.2-.011.306,0,.174-.08.236-.25.238-.409,0-.817.023-1.226.03-.318.005-.636,0-.954,0v.025H18.072c-.394,0-.425-.041-.444-.419-.053-1.088-.085-2.177-.054-3.267M8.59,6.744c.019-.2.093-.247.329-.251.6-.01,1.2.07,1.8.1a1.93,1.93,0,0,0,.237.013c.337-.022.335-.024.36-.365.011-.158.029-.315.044-.473.022-.221.057-.241.244-.129a8.679,8.679,0,0,1,1.169.874c.326.281.641.574.964.859.1.085.11.151,0,.244-.679.583-1.3,1.235-1.99,1.8a2.594,2.594,0,0,1-.328.241c-.145.084-.242.035-.257-.134s0-.34,0-.51h0c0-.045,0-.091,0-.136.012-.416.012-.422-.417-.447-.61-.036-1.224-.008-1.832-.089-.078-.01-.158-.014-.235-.031A.194.194,0,0,1,8.5,8.1c.029-.452.049-.905.091-1.356" transform="translate(-4.347 -1.983)" fill="#f85606"/>
    <path id="Path_1935" data-name="Path 1935" d="M137.22,22.219c.09.005.181.02.271.022q.528.011,1.056.016c.111,0,.221-.026.184-.171a2.518,2.518,0,0,1,0-.813c.046-.725.116-1.447.227-2.165.058-.368.185-.489.552-.529.09-.01.181-.011.272-.015s.156-.035.133-.144a2.147,2.147,0,0,0-.825-1.5c-.607-.4-1.222-.787-1.836-1.173-1.644-1.034-3.361-1.941-5.04-2.916a27.568,27.568,0,0,1-2.914-1.887c-2.464-1.884-5.01-3.649-7.56-5.412a1.521,1.521,0,0,0-.5-.279,2.723,2.723,0,0,1,.145.886c-.007.106.072.119.159.13a6.308,6.308,0,0,1,.906.141c.111.03.224.085.218.225a.264.264,0,0,1-.209.241c-.113.035-.23.054-.381.089a7.373,7.373,0,0,1,.883.445,24.787,24.787,0,0,1,2.257,1.583,3.718,3.718,0,0,1,1.571,2.344,6.582,6.582,0,0,1,.231,1.679c-.028.442-.128.537-.569.521q-1.446-.051-2.893-.122c-1.213-.06-2.425-.133-3.639-.191-1.281-.061-2.563-.109-3.845-.165-.147-.006-.293-.028-.44-.044-.114-.013-.169-.052-.17-.194,0-.931-.017-1.862-.043-2.792-.03-1.089-.079-2.178-.118-3.266-.013-.367.023-.406.4-.415.227,0,.455-.007.681,0,.464.025.459.028.574-.4a2.792,2.792,0,0,1,.347-.774.549.549,0,0,0,.142-.265,16.623,16.623,0,0,1-1.924,0c-.282-.029-.568-.011-.851-.02-.126,0-.194.038-.186.173,0,.057,0,.113,0,.17q.013,6.184.03,12.368c0,.818.045,1.635.009,2.453-.01.241-.011.246.232.249.863.012,1.726.027,2.589.03q3.509.014,7.019.018.392,0,.784,0a.467.467,0,0,1,.405.21.317.317,0,0,1-.2.541,1.665,1.665,0,0,1-.441.026l-9.676-.089c-.182,0-.364,0-.545-.005-.15-.007-.2.059-.195.2,0,.318-.009.636-.012.954s-.013.293.3.3c1.851.014,3.7.031,5.554.041q3.339.019,6.678.025c.2,0,.468.092.588-.046s.088-.406.1-.62c.049-1.2.1-2.4.152-3.606.006-.123-.062-.349.107-.342.208.009.1.235.1.362-.061,1.338-.132,2.674-.2,4.011-.013.245,0,.242.227.253s.209-.146.227-.291a4.284,4.284,0,0,1,8.4-.483c.1.409.1.408.505.431M116.21,16.1a.4.4,0,0,1-.265.395c-.289.117-.45.038-.516-.271a5.482,5.482,0,0,1-.056-1.115c0-.226,0-.453.016-.678.018-.264.132-.386.333-.39a.415.415,0,0,1,.48.4c.011.271,0,.542,0,.814h.006c0,.283,0,.565,0,.848m10.467-6.646c-.146-.218-.363-.369-.512-.587a1.352,1.352,0,0,1,.527.425,5.117,5.117,0,0,1,1.16,2.533,21.67,21.67,0,0,1,.193,4.036c0,.1-.005.1-.128.292-.018-.425-.037-.817-.05-1.208-.03-.872-.052-1.743-.147-2.613a6.314,6.314,0,0,0-1.043-2.878m1.261,7.905c-.3,0-.362-.073-.358-.391s.09-.409.434-.411c.289,0,.43.084.43.262,0,.407-.126.543-.507.54" transform="translate(-93.362 -3.99)" fill="#f85606"/>
    <path id="Path_1936" data-name="Path 1936" d="M23.726,80.616a3.955,3.955,0,0,0-4,3.933,3.972,3.972,0,1,0,7.945.039,3.965,3.965,0,0,0-3.948-3.972m2.464,3.975a2.494,2.494,0,1,1-2.48-2.524,2.45,2.45,0,0,1,2.48,2.524" transform="translate(-16.089 -65.741)" fill="#f85606"/>
    <path id="Path_1937" data-name="Path 1937" d="M194.932,80.612a4,4,0,0,0-3.994,3.936,3.947,3.947,0,0,0,3.985,4.007,3.971,3.971,0,0,0,.008-7.943m-.025,6.453a2.5,2.5,0,0,1-.02-5,2.5,2.5,0,1,1,.02,5" transform="translate(-155.707 -65.738)" fill="#f85606"/>
    <path id="Path_1938" data-name="Path 1938" d="M91.334,101.338c-2.554-.017-5.108-.006-7.663-.055-2.849-.055-5.7.01-8.548-.067-1.6-.043-3.2-.016-4.8-.018-.169,0-.362-.069-.5.025s-.105.309-.144.471c-.011.044-.028.087-.039.13-.094.384-.094.384.3.386,4.769.021,9.538-.022,14.307.06,2.225.039,4.452.02,6.678.026.27,0,.54,0,.869,0a2.84,2.84,0,0,1-.124-.671c-.066-.281-.054-.286-.332-.287" transform="translate(-56.745 -82.505)" fill="#f85606"/>
    <path id="Path_1939" data-name="Path 1939" d="M143.875,18.434c-.562-.423-1.122-.851-1.7-1.255a9.458,9.458,0,0,0-1.962-1.1c0,.256,0,.492,0,.728a1.278,1.278,0,0,0,.053.694c.037.067,0,.179-.012.267a6.4,6.4,0,0,1-.282.871c-.168.5-.664.575-1.018.833a.988.988,0,0,1-.568.2.192.192,0,0,1-.034,0,.631.631,0,0,0-.523.187c-.313.259-.315.254-.042.529a.152.152,0,0,1,.022.057c-.1.182-.333.135-.468.287A3.027,3.027,0,0,1,138,21.866a.282.282,0,0,0,.329.237,9.574,9.574,0,0,1,1.529.067.638.638,0,0,0,.737-.257.973.973,0,0,1,.191-.193,3.748,3.748,0,0,0,.811-1.04,5.563,5.563,0,0,1,.547-.736.33.33,0,0,1,.255-.151c.2,0,.212-.13.206-.276a1.4,1.4,0,0,1,.068-.436.4.4,0,0,1,.444-.335c.206.017.282.095.329.361a3.343,3.343,0,0,1,.008.984,2.155,2.155,0,0,0,.036.436.082.082,0,0,0,.093.078c.054,0,.079-.035.084-.085.01-.1.011-.205.029-.305.037-.214.1-.268.322-.261a1.917,1.917,0,0,1,.6.119,1.711,1.711,0,0,0,.526.151,1.154,1.154,0,0,0-.033-.156,3.6,3.6,0,0,0-1.235-1.632" transform="translate(-112.001 -13.111)" fill="#f85606"/>
    <path id="Path_1940" data-name="Path 1940" d="M3.483,68.868a1.008,1.008,0,0,1-.352-.813c.006-.238,0-.476-.005-.714-.008-.282-.011-.277-.281-.288a5.578,5.578,0,0,1-1.017-.047c-.134-.03-.183.036-.186.165-.006.317-.047.633-.06.948-.035.883-.106,1.765-.082,2.649.013.487.074.969.119,1.453a1.717,1.717,0,0,0,1.916,1.321c.3-.107.315-.068.356-.379.013-.1.044-.2.049-.3a4.823,4.823,0,0,1,1.078-2.729,14.158,14.158,0,0,1-1.534-1.266" transform="translate(-1.219 -54.636)" fill="#f85606"/>
    <path id="Path_1941" data-name="Path 1941" d="M22.645,74.532a5.04,5.04,0,0,0-5.027.716,4.817,4.817,0,0,0-2.04,3.688c-.017.247.048.3.288.282.19-.015.166-.149.178-.27a4.284,4.284,0,0,1,8.539.688c-.011.136-.02.272-.029.407a.11.11,0,0,0,.117.131c.057,0,.114,0,.17,0,.387.006.382,0,.488-.357a3.922,3.922,0,0,0,.137-1.1,4.342,4.342,0,0,0-2.823-4.193" transform="translate(-12.702 -60.478)" fill="#f85606"/>
    <path id="Path_1942" data-name="Path 1942" d="M2.04,43.628c.284.008.568.018.851.009a.477.477,0,0,0,.538-.488q.156-1.352.231-2.713c0-.216-.013-.432,0-.646a4.128,4.128,0,0,0-.035-.645c-.024-.307-.106-.4-.4-.461a4.073,4.073,0,0,0-.777-.079A.428.428,0,0,0,2,38.934a3.308,3.308,0,0,0-.139.8c-.058.7-.122,1.4-.172,2.1a9.869,9.869,0,0,0-.069,1.393c.023.325.095.387.424.4" transform="translate(-1.311 -31.482)" fill="#f85606"/>
    <path id="Path_1943" data-name="Path 1943" d="M128.754,3.722a7.5,7.5,0,0,1,.95-.043q1.907-.009,3.814-.02a.518.518,0,0,0,.4-.087.828.828,0,0,0-.347-.106,9.719,9.719,0,0,0-1.726-.133c-.576-.007-.651-.1-.607-.667.03-.38.077-.425.451-.436a2,2,0,0,0,.726-.077,1.44,1.44,0,0,0-1.018-.931A2.346,2.346,0,0,0,128.5,3.488c-.012.228.017.265.252.234" transform="translate(-104.789 -0.93)" fill="#f85606"/>
    <path id="Path_1944" data-name="Path 1944" d="M121.181,37.873c.666.037,1.333.081,2,.11a9.377,9.377,0,0,0,1.174.021,2.259,2.259,0,0,0-.675-1.244,8.27,8.27,0,0,0-1.217-.859c-.642-.387-.832-.369-1.371.163a.3.3,0,0,1-.025.024.433.433,0,0,0-.169.382c0,.385.01.769.039,1.153.018.24.013.238.244.251" transform="translate(-98.59 -29.059)" fill="#f85606"/>
    <path id="Path_1945" data-name="Path 1945" d="M120.5,18.414a1.4,1.4,0,0,1,.471-.381,1.33,1.33,0,0,0,.6-.474c.109-.14.228-.291.446-.26a.115.115,0,0,0,.086-.034.582.582,0,0,0,.031-.6,2.529,2.529,0,0,1-.422-2.131.889.889,0,0,0,0-.3c-.009-.1-.054-.133-.149-.132q-.51.006-1.021,0c-.1,0-.146.039-.141.14,0,.079,0,.159,0,.238-.016,1.282.112,2.561.1,3.929" transform="translate(-98.182 -11.501)" fill="#f85606"/>
    <path id="Path_1946" data-name="Path 1946" d="M76.565,89.229c-.217,0-.429-.031-.644-.046a.113.113,0,0,0-.134.117c0,.079.026.133.112.137.068,0,.136,0,.2,0,1.373.016,2.745.007,4.118.045,2.121.058,4.244-.012,6.365.075.657.027,1.317,0,1.8,0,1.06.036,1.945,0,2.83.058.77.046,1.543.019,2.315.023a1.134,1.134,0,0,0,.236-.02.122.122,0,0,0,.111-.111.137.137,0,0,0-.095-.128,1.188,1.188,0,0,0-.5-.085c-2.258-.028-4.516-.009-6.775-.044-3.314-.052-6.63-.027-9.944-.031" transform="translate(-61.803 -72.727)" fill="#f85606"/>
    <path id="Path_1947" data-name="Path 1947" d="M133.568,25.879a1.053,1.053,0,0,1-.438-.426.772.772,0,0,0-.337-.322c-.27-.166-.537-.338-.806-.507a5,5,0,0,0-.635-.415,1.17,1.17,0,0,0-.448.686,4.243,4.243,0,0,1-.187.581c-.064.142-.018.2.1.265a4.855,4.855,0,0,1,1.034.827c.037.038.072.089.153.073l.407-.377c-.174-.106-.38-.12-.528-.315.58.128,1.131.335,1.691-.07" transform="translate(-106.574 -19.741)" fill="#f85606"/>
    <path id="Path_1948" data-name="Path 1948" d="M157.794,38.413a4.366,4.366,0,0,0,.02-.95c-.022-.242-.146-.3-.375-.212-.15.06-.288.17-.476.128.158-.173.158-.173.1-.4a1.755,1.755,0,0,0-.766.921,2.337,2.337,0,0,1-.721.97c-.128.108-.254.218-.407.348a1.325,1.325,0,0,0,.427.062c.306.015.613.016.917.041a.473.473,0,0,0,.4-.13,1.692,1.692,0,0,1,.59-.392.435.435,0,0,0,.294-.384" transform="translate(-126.539 -30.153)" fill="#f85606"/>
    <path id="Path_1949" data-name="Path 1949" d="M172.361,40.542a10.267,10.267,0,0,0,1.284.028.257.257,0,0,0,.248-.26,1.663,1.663,0,0,0,0-.2,12.833,12.833,0,0,0-.189-1.271.277.277,0,0,0-.221-.23,4.354,4.354,0,0,0-.876-.255c-.254-.02-.285-.013-.321.242-.008.056,0,.113-.007.17a13.313,13.313,0,0,1-.061,1.593c-.018.107.032.191.142.186" transform="translate(-140.439 -31.27)" fill="#f85606"/>
    <path id="Path_1950" data-name="Path 1950" d="M247.386,80.143a.363.363,0,0,0-.3.354c-.1.717-.186,1.436-.241,2.158a2.558,2.558,0,0,0-.026.876.961.961,0,0,0,.373-.039.711.711,0,0,0,.533-.591c.051-.79.1-1.581.138-2.372.02-.444-.047-.483-.477-.385" transform="translate(-201.25 -65.319)" fill="#f85606"/>
    <path id="Path_1951" data-name="Path 1951" d="M137.737,16.564c.1.146.316.155.478.232a.953.953,0,0,0,.864.119,1.4,1.4,0,0,1,.436-.036,2.764,2.764,0,0,0,.765-.046,3.609,3.609,0,0,0,.018-.81c-.015-.252-.017-.254-.276-.256q-.833,0-1.666,0a2.427,2.427,0,0,0-.609,0,2.916,2.916,0,0,1,.018.307c-.008.168-.117.358-.028.495m1.585-.445c.128,0,.163.1.168.252a.178.178,0,0,1-.174.2c-.118,0-.171-.089-.167-.208s.028-.237.173-.243" transform="translate(-112.294 -12.836)" fill="#f85606"/>
    <path id="Path_1952" data-name="Path 1952" d="M238.154,98.714a6.458,6.458,0,0,1-.772.081,7.328,7.328,0,0,1-1.186-.05c-.522-.076-.524-.058-.524.461,0,.023,0,.045,0,.068,0,.317.005.324.322.33q.782.012,1.564.015a.982.982,0,0,0,1.013-1.135,1.057,1.057,0,0,1-.416.229" transform="translate(-192.187 -80.313)" fill="#f85606"/>
    <path id="Path_1953" data-name="Path 1953" d="M144.526,24.387a3.012,3.012,0,0,0,.439-1.129c.044-.2-.022-.281-.221-.284-.373-.006-.746,0-1.119.007a.232.232,0,0,0-.254.217c-.012.078-.02.156-.028.227a1.994,1.994,0,0,0,.3.934c.249.414.6.423.886.027" transform="translate(-116.893 -18.733)" fill="#f85606"/>
    <path id="Path_1954" data-name="Path 1954" d="M129.526,15.706a2.586,2.586,0,0,0-.846,0,.517.517,0,0,1-.235-.013c-.146-.04-.194.007-.226.154a2.85,2.85,0,0,0,.442,2.088,2.7,2.7,0,0,1,.2-.392.2.2,0,0,0-.024-.318.762.762,0,0,1-.178-.5c-.034-.4.211-.58.587-.458a1.081,1.081,0,0,0,.449.136,1.051,1.051,0,0,0,.094-.4c.013-.265.013-.259-.266-.292" transform="translate(-104.516 -12.778)" fill="#f85606"/>
    <path id="Path_1955" data-name="Path 1955" d="M132.705,19.994c-.12-.2-.228-.381-.345-.56-.068-.1-.149-.24-.288-.187s-.16.21-.147.35a.78.78,0,0,0,.066.262c.061.129.117.294.319.149.062-.044.129.01.187.046.125.078.252.153.375.234.337.22.673.442,1.048.689a2.811,2.811,0,0,1-.044-.828c.012-.068.011-.13-.074-.164-.3-.122-.595-.25-.9-.377-.065.141-.048.283-.2.387" transform="translate(-107.58 -15.686)" fill="#f85606"/>
    <path id="Path_1956" data-name="Path 1956" d="M127.807,32.521c-.286-.163-.282-.173-.481.086-.039.05-.1.1-.072.19.09.046.19.1.288.149a6.214,6.214,0,0,1,1.2.813c.262.237.285.239.588-.025a4.451,4.451,0,0,1-.459-.388,4.3,4.3,0,0,0-1.066-.824" transform="translate(-103.769 -26.426)" fill="#f85606"/>
    <path id="Path_1957" data-name="Path 1957" d="M145.04,7.86c-.2.021-.408.027-.612.027-.177,0-.277.063-.276.254,0,.09-.024.179-.032.269a.179.179,0,0,0,.164.213,3.266,3.266,0,0,0,.542.042l.068.005c.552.026.592-.025.439-.56,0-.011-.006-.022-.008-.033a.237.237,0,0,0-.285-.217" transform="translate(-117.527 -6.408)" fill="#f85606"/>
    <path id="Path_1958" data-name="Path 1958" d="M167.357,31.839c-.013-.082-.025-.167-.119-.18-.122-.016-.187.069-.218.172a2.241,2.241,0,0,0-.086.735c0,.057.009.111.071.138a.272.272,0,0,0,.4-.26c0-.045,0-.09,0-.182a1.407,1.407,0,0,0-.048-.423" transform="translate(-136.13 -25.816)" fill="#f85606"/>
    <path id="Path_1959" data-name="Path 1959" d="M169.927,46.591c-.159,0-.18.1-.183.223a1.413,1.413,0,0,1-.012.236c-.019.1-.032.177.1.192s.2-.016.186-.159a1.766,1.766,0,0,1,.016-.226.131.131,0,0,0,0-.044c-.017-.084.066-.218-.111-.223" transform="translate(-138.405 -37.994)" fill="#f85606"/>
    <path id="Path_1960" data-name="Path 1960" d="M170.828,41.672c-.006-.061-.036-.109-.1-.108a.086.086,0,0,0-.085.086,1.11,1.11,0,0,0,.055.605.912.912,0,0,0,.133-.583" transform="translate(-139.142 -33.895)" fill="#f85606"/>
    <path id="Path_1961" data-name="Path 1961" d="M166.418,48.2c-.1.074-.185.156-.277.235l.024.058c.112,0,.225,0,.338,0a.117.117,0,0,0,.123-.13c0-.065.023-.141-.048-.184a.142.142,0,0,0-.16.022" transform="translate(-135.486 -39.277)" fill="#f85606"/>
    <path id="Path_1962" data-name="Path 1962" d="M72.124,26.023h2.044V26c.318,0,.636,0,.954,0,.409-.007.817-.027,1.226-.03.171,0,.253-.064.25-.238,0-.1.012-.2.011-.306-.007-.6-.012-1.2-.026-1.805q-.015-.646-.052-1.292c-.021-.361-.055-.389-.4-.385q-1.959.024-3.917.052a2.478,2.478,0,0,0-.3.023c-.276.038-.272.04-.28.321-.031,1.09,0,2.179.054,3.267.018.378.05.419.444.419M73.781,22.2l.1,0c.368-.011.354-.009.414.365a3.451,3.451,0,0,1,.034.779c-.092-.015-.146-.026-.2-.032-.448-.044-.447-.044-.462-.506a3.485,3.485,0,0,0-.027-.44c-.021-.128.029-.165.141-.166m-1.93.3c0-.286.014-.287.3-.289.363,0,.727.006,1.09-.009.185-.007.232.061.228.233-.005.261.007.522.022.783.017.286.058.322.353.338.125.007.25,0,.375,0,.268-.006.311-.049.3-.322s-.019-.567-.038-.85c-.01-.148.047-.2.193-.2.476,0,.953-.019,1.429-.034.144,0,.209.054.208.2s.007.3.012.442q.048,1.36.1,2.721c.007.21.008.218-.231.219-.692,0-1.385,0-2.078,0,0,.022,0,.043,0,.064-.681,0-1.362,0-2.043,0-.149,0-.231-.025-.23-.2.005-1.033,0-2.066,0-3.1" transform="translate(-58.4 -17.892)" fill="#f85606"/>
    <path id="Path_1963" data-name="Path 1963" d="M22.668,22.214c.077.017.157.021.235.031.609.08,1.222.053,1.832.089.43.025.429.031.417.447,0,.045,0,.091,0,.136h0c0,.17-.011.341,0,.51s.112.218.257.134a2.61,2.61,0,0,0,.328-.241c.694-.566,1.312-1.218,1.99-1.8.109-.094.094-.16,0-.244-.322-.285-.637-.578-.963-.859a8.679,8.679,0,0,0-1.169-.874c-.188-.113-.223-.092-.244.129-.015.158-.033.315-.044.473-.025.341-.023.343-.36.365a2,2,0,0,1-.237-.013c-.6-.034-1.2-.113-1.8-.1-.236,0-.31.046-.329.251-.042.451-.062.9-.091,1.356a.194.194,0,0,0,.171.217m.055-.453c.018-.306.034-.612.056-.917.019-.258.027-.273.283-.258.521.032,1.04.076,1.56.117a3.286,3.286,0,0,0,.679,0,.192.192,0,0,0,.2-.223c-.009-.238,0-.476,0-.787a22.826,22.826,0,0,1,2,1.688c-.742.617-1.41,1.291-2.14,1.931a1.242,1.242,0,0,1-.012-.568c0-.091,0-.181,0-.272-.01-.268-.024-.3-.289-.313-.69-.046-1.381-.083-2.072-.12-.28-.015-.281-.011-.265-.28" transform="translate(-18.345 -15.88)" fill="#f85606"/>
    <path id="Path_1964" data-name="Path 1964" d="M104.884,56.921a.442.442,0,0,0,.266-.435c.009-.26,0-.52,0-.78h-.012c0-.294.014-.589,0-.882a.435.435,0,0,0-.5-.353c-.195.01-.293.116-.309.371-.021.338-.037.677-.036,1.016a5.827,5.827,0,0,0,.055.778c.045.325.234.415.535.285m-.349-1.2h.008c0-.26,0-.519,0-.779,0-.1-.006-.211.145-.217s.206.055.205.2c0,.531,0,1.061,0,1.592a.2.2,0,0,1-.131.213c-.144.062-.218.03-.223-.127-.009-.293,0-.587,0-.88" transform="translate(-85.05 -44.419)" fill="#f85606"/>
    <path id="Path_1965" data-name="Path 1965" d="M179.482,32.515c.013.391.032.783.05,1.208.122-.19.125-.189.128-.292a21.67,21.67,0,0,0-.193-4.036,5.115,5.115,0,0,0-1.16-2.533,1.352,1.352,0,0,0-.527-.425c.149.218.366.369.512.587a6.311,6.311,0,0,1,1.043,2.878c.094.87.117,1.741.147,2.613" transform="translate(-144.977 -21.559)" fill="#f85606"/>
    <path id="Path_1966" data-name="Path 1966" d="M120.117,55.688c0-.271.009-.542,0-.814a.415.415,0,0,0-.48-.4c-.2,0-.315.126-.333.39-.016.225-.018.452-.016.678a5.481,5.481,0,0,0,.056,1.115c.066.309.228.388.516.271a.4.4,0,0,0,.265-.395c.006-.282,0-.565,0-.848Zm-.219.8a.224.224,0,0,1-.125.221c-.166.088-.266.047-.272-.141-.01-.283,0-.567,0-.85h.008c0-.261,0-.521,0-.783,0-.113-.008-.251.161-.237.124.01.238.049.235.226-.009.521,0,1.043,0,1.565" transform="translate(-97.274 -44.424)" fill="#f85606"/>
    <path id="Path_1967" data-name="Path 1967" d="M185.884,68.118c-.344,0-.429.083-.434.411s.06.388.358.391c.381,0,.508-.132.507-.54,0-.178-.142-.264-.43-.262m.256.387c-.012.181-.033.2-.3.2-.1,0-.225.02-.206-.18.017-.177.046-.195.306-.208.146-.008.208.036.2.186" transform="translate(-151.232 -55.549)" fill="#f85606"/>
    <path id="Path_1968" data-name="Path 1968" d="M30.223,88.481A2.5,2.5,0,1,0,32.7,91a2.43,2.43,0,0,0-2.48-2.524m-.008,4.773a2.26,2.26,0,1,1,.015-4.519A2.238,2.238,0,0,1,32.461,91a2.267,2.267,0,0,1-2.245,2.256" transform="translate(-22.602 -72.155)" fill="#f85606"/>
    <path id="Path_1969" data-name="Path 1969" d="M201.354,88.478a2.5,2.5,0,0,0,.02,5,2.5,2.5,0,1,0-.02-5m0,4.772a2.263,2.263,0,1,1,.158-4.521,2.263,2.263,0,0,1-.158,4.521" transform="translate(-162.174 -72.152)" fill="#f85606"/>
    <path id="Path_1970" data-name="Path 1970" d="M145.712,18.246a.178.178,0,0,0,.174-.2c0-.156-.04-.257-.168-.252-.144.005-.169.122-.173.243s.049.213.167.209" transform="translate(-118.69 -14.512)" fill="#f85606"/>
    <path id="Path_1971" data-name="Path 1971" d="M73.109,26.736c.681,0,1.362,0,2.043,0,0-.021,0-.042,0-.064.692,0,1.385,0,2.077,0,.239,0,.238-.008.231-.219q-.049-1.361-.1-2.721c-.005-.147-.013-.3-.012-.442s-.064-.2-.208-.2c-.476.015-.953.029-1.429.034-.147,0-.2.052-.193.2q.028.424.037.85c.007.273-.037.316-.3.322-.125,0-.25,0-.375,0-.3-.016-.336-.052-.353-.338-.015-.261-.028-.522-.022-.783,0-.172-.043-.241-.228-.234-.363.015-.726.007-1.09.009-.291,0-.3,0-.3.289,0,1.033,0,2.066,0,3.1,0,.177.081.2.23.2" transform="translate(-59.432 -18.828)" fill="#f85606"/>
    <path id="Path_1972" data-name="Path 1972" d="M82.6,23.927c.015.462.015.461.462.505.055.006.11.017.2.032a3.461,3.461,0,0,0-.034-.779c-.06-.375-.047-.377-.414-.365l-.1,0c-.112,0-.162.038-.141.166a3.449,3.449,0,0,1,.027.44" transform="translate(-67.333 -19.014)" fill="#f85606"/>
    <path id="Path_1973" data-name="Path 1973" d="M23.968,23.026c.691.037,1.382.073,2.072.12.265.018.279.046.289.313,0,.091,0,.182,0,.272a1.244,1.244,0,0,0,.012.568c.73-.64,1.4-1.314,2.14-1.931a22.769,22.769,0,0,0-2-1.688c0,.311-.006.549,0,.787a.192.192,0,0,1-.2.223,3.286,3.286,0,0,1-.679,0c-.52-.042-1.04-.086-1.56-.117-.256-.015-.264,0-.283.258-.023.305-.039.611-.057.917-.016.27-.015.265.265.28" transform="translate(-19.325 -16.865)" fill="#f85606"/>
    <path id="Path_1974" data-name="Path 1974" d="M105.819,57.829a.2.2,0,0,0,.131-.213c0-.53,0-1.061,0-1.592,0-.144-.065-.2-.206-.2s-.144.115-.145.217c0,.259,0,.519,0,.779h-.008c0,.293-.006.587,0,.88,0,.158.08.189.223.127" transform="translate(-86.108 -45.525)" fill="#f85606"/>
    <path id="Path_1975" data-name="Path 1975" d="M120.6,55.686c-.169-.013-.16.125-.161.237,0,.261,0,.522,0,.783h-.008c0,.283-.008.567,0,.85.007.188.106.23.272.141a.225.225,0,0,0,.125-.221c0-.522,0-1.043,0-1.565,0-.177-.111-.216-.235-.226" transform="translate(-98.209 -45.41)" fill="#f85606"/>
    <path id="Path_1976" data-name="Path 1976" d="M186.76,69.2c-.259.013-.289.031-.306.208-.019.2.109.185.206.18.265,0,.286-.021.3-.2.01-.15-.052-.194-.2-.186" transform="translate(-152.05 -56.431)" fill="#f85606"/>
    <path id="Path_1977" data-name="Path 1977" d="M31.285,89.859a2.26,2.26,0,1,0,2.23,2.263,2.238,2.238,0,0,0-2.23-2.263" transform="translate(-23.656 -73.279)" fill="#f85606"/>
    <path id="Path_1978" data-name="Path 1978" d="M202.611,89.826a2.263,2.263,0,1,0-.158,4.521,2.263,2.263,0,0,0,.158-4.521" transform="translate(-163.27 -73.25)" fill="#f85606"/>
  </g>
</svg>
