<svg xmlns="http://www.w3.org/2000/svg" width="82.563" height="25.073" viewBox="0 0 82.563 25.073">
  <path id="Path_2177" data-name="Path 2177" d="M143.694,213.758l-4.165,9.117h2.712l.768-1.826h4.468l.765,1.826h2.771l-4.161-9.117Zm1.541,2.122,1.362,3.19h-2.727Zm6.064,6.993v-9.117l3.853.013,2.241,5.879,2.188-5.892H163.4v9.117h-2.421v-6.717l-2.566,6.717h-2.123l-2.574-6.717v6.717Zm13.761,0v-9.117h7.9V215.8h-5.454v1.559h5.326v1.919h-5.326v1.619h5.454v1.979Zm9.3-9.115v9.117h2.421v-3.239h1.02l2.9,3.239h2.959l-3.185-3.359a2.848,2.848,0,0,0,2.655-2.8c0-1.919-1.6-2.958-3.384-2.958Zm2.421,2.039h2.767a1.087,1.087,0,0,1,1.147.959,1.072,1.072,0,0,1-1.111.96h-2.8Zm9.811,7.076h-2.472v-9.117h2.472Zm5.861,0h-.534c-2.581,0-4.149-1.915-4.149-4.522,0-2.67,1.55-4.6,4.81-4.6h2.676v2.159h-2.774a2.246,2.246,0,0,0-2.259,2.459,2.3,2.3,0,0,0,2.612,2.507h.637Zm5.268-9.116-4.165,9.117h2.712l.768-1.826H201.5l.765,1.826h2.771l-4.161-9.117Zm1.54,2.122,1.362,3.19H197.9Zm6.061,6.994v-9.117H208.4l3.929,5.728v-5.728h2.421v9.117h-2.978l-4.03-5.878v5.878ZM157.16,238.828v-9.117h7.9v2.039h-5.453v1.56h5.326v1.919h-5.326v1.619h5.453v1.979Zm38.709,0v-9.117h7.9v2.039h-5.453v1.56h5.3v1.919h-5.3v1.619h5.453v1.979Zm-30.5,0,3.846-4.5-3.938-4.615h3.05l2.346,2.853,2.353-2.853h2.931l-3.887,4.559,3.854,4.559h-3.05l-2.277-2.808-2.222,2.808Zm10.842-9.116v9.117h2.485V235.95h2.548c2.156,0,3.791-1.077,3.791-3.171,0-1.735-1.282-3.067-3.477-3.067Zm2.485,2.062h2.684a1.067,1.067,0,0,1,1.195,1.049,1.091,1.091,0,0,1-1.2,1.05h-2.676Zm7.39-2.064v9.117H188.5v-3.239h1.02l2.9,3.239h2.959l-3.186-3.359a2.849,2.849,0,0,0,2.656-2.8c0-1.919-1.6-2.958-3.384-2.958Zm2.421,2.039h2.767a1.087,1.087,0,0,1,1.146.96,1.071,1.071,0,0,1-1.11.959h-2.8Zm16.385,7.078v-1.979h4.845c.717,0,1.027-.365,1.027-.765,0-.383-.309-.771-1.027-.771h-2.19a2.633,2.633,0,0,1-2.963-2.731c0-1.462.971-2.872,3.8-2.872h4.714l-1.019,2.052H208c-.779,0-1.019.385-1.019.753a.821.821,0,0,0,.891.795h2.293c2.122,0,3.043,1.132,3.043,2.616a2.822,2.822,0,0,1-3.158,2.9Zm8.885,0v-1.979h4.845c.717,0,1.027-.365,1.027-.765,0-.383-.31-.771-1.027-.771h-2.19a2.633,2.633,0,0,1-2.963-2.731c0-1.462.971-2.872,3.8-2.872h4.714l-1.02,2.052h-4.077c-.779,0-1.02.385-1.02.753a.822.822,0,0,0,.892.795h2.293c2.122,0,3.042,1.132,3.042,2.616a2.821,2.821,0,0,1-3.157,2.9Z" transform="translate(-139.529 -213.756)" fill="#016fd0"/>
</svg>
