<svg xmlns="http://www.w3.org/2000/svg" width="23.906" height="27.113" viewBox="0 0 23.906 27.113">
  <path id="icons8-play-store" d="M6.253,2,19.027,14.681l3.5-3.5L7.046,2.24A1.7,1.7,0,0,0,6.253,2Zm-1.069.59A1.454,1.454,0,0,0,5,3.309V27.952a1.326,1.326,0,0,0,.111.535L18.179,15.511Zm18.414,9.2-3.742,3.723,3.742,3.7L28.169,16.6a1.162,1.162,0,0,0,.018-2.157C27.8,14.232,24.907,12.548,23.6,11.787ZM19.027,16.34,6.143,29.113a1.452,1.452,0,0,0,.664-.184l10.709-6.193,5.032-2.894Z" transform="translate(-5 -2)"/>
</svg>
