<svg xmlns="http://www.w3.org/2000/svg" width="46.254" height="46.254" viewBox="0 0 46.254 46.254">
  <g  id="Group_6385" data-name="Group 6385" transform="translate(-101.066 -3876.4)">
    <path id="Path_2021" data-name="Path 2021" d="M49.049,612.95H38.223a5.6,5.6,0,0,0-5.593,5.593V629.37a5.6,5.6,0,0,0,5.593,5.593H49.049a5.6,5.6,0,0,0,5.593-5.593V618.543a5.6,5.6,0,0,0-5.593-5.593m-5.3,17.682a6.678,6.678,0,1,1,6.678-6.678,6.685,6.685,0,0,1-6.678,6.678m7.068-12.215a1.59,1.59,0,1,1,1.59-1.59,1.587,1.587,0,0,1-1.59,1.59m-7.068,1.259a4.279,4.279,0,1,0,4.275,4.279,4.284,4.284,0,0,0-4.275-4.279" transform="translate(80.554 3275.539)" fill="#f85606"/>
    <path id="Path_2022" data-name="Path 2022" d="M23.127,580.4a23.127,23.127,0,1,0,23.127,23.127A23.127,23.127,0,0,0,23.127,580.4m13.556,28.508a8.155,8.155,0,0,1-8.145,8.145H17.712a8.155,8.155,0,0,1-8.145-8.145V598.082a8.153,8.153,0,0,1,8.145-8.145H28.538a8.153,8.153,0,0,1,8.145,8.145Z" transform="translate(101.066 3296)" fill='#f85606'/>
  </g>
</svg>
