<svg  xmlns="http://www.w3.org/2000/svg" width="46.28" height="46.28" viewBox="0 0 46.28 46.28">
  <path  id="Path_2060" data-name="Path 2060" d="M2364.246,0a23.14,23.14,0,1,0,23.14,23.14A23.14,23.14,0,0,0,2364.246,0m-7.341,35.086h-5.478V17.49h5.478Zm-2.738-20a3.171,3.171,0,1,1,3.171-3.174,3.174,3.174,0,0,1-3.171,3.174m23.226,20h-5.466V26.531c0-2.042-.04-4.666-2.843-4.666-2.847,0-3.281,2.223-3.281,4.517v8.7h-5.466V17.49h5.246V19.9h.072a5.75,5.75,0,0,1,5.179-2.842c5.538,0,6.559,3.642,6.559,8.381Z" transform="translate(-2341.106)" fill='#f85606'/>
</svg>
