<svg id="Group_6416" data-name="Group 6416" xmlns="http://www.w3.org/2000/svg" xmlns:xlink="http://www.w3.org/1999/xlink" width="142.855" height="112.55" viewBox="0 0 142.855 112.55">
  <defs>
    <clipPath id="clip-path">
      <rect id="Rectangle_3122" data-name="Rectangle 3122" width="142.854" height="112.55" fill="none"/>
    </clipPath>
  </defs>
  <path id="Path_2009" data-name="Path 2009" d="M135.861,148.057l-10.618,13.976v4.648l10.711,14.069h9.733l-13.133-16.672,12.668-16.021Z" transform="translate(-57.691 -68.199)" fill="#252328"/>
  <path id="Path_2010" data-name="Path 2010" d="M237.568,148.057,226.95,162.032v4.648l10.711,14.069h9.733l-13.133-16.672,12.668-16.021Z" transform="translate(-104.54 -68.199)" fill="#252328"/>
  <g id="Group_6383" data-name="Group 6383">
    <g id="Group_6382" data-name="Group 6382" clip-path="url(#clip-path)">
      <path id="Path_2011" data-name="Path 2011" d="M107.416,180.741H98.424l-5.239-9.506L91.627,168.4l-1.789-3.25-1.311-2.38h6.128c2.977,0,4.375-1.543,4.375-4.1,0-2.422-1.4-4-4.375-4H88.527v-6.617h6.6c8.005,0,12.011,4.607,12.011,10.288a9.52,9.52,0,0,1-7.265,9.455Z" transform="translate(-40.778 -68.197)" fill="#f85606"/>
      <path id="Path_2012" data-name="Path 2012" d="M74.51,198.489H66.075l-1.954-5.771h-8.87a18.579,18.579,0,0,0,2.2-5.368c.065-.258.121-.516.177-.783h12.56Z" transform="translate(-25.45 -85.938)" fill="#f85606"/>
      <path id="Path_2013" data-name="Path 2013" d="M37.226,148.047H28l-.8,2.211-1.3,3.592-5.3,14.658c-1.051,3.053-2.672,4.044-5.174,4.819a12.144,12.144,0,0,1-3.689.525H7.967v-19h3.77c4.214,0,7.208,1.736,8.62,4.843l3-8.282a18.19,18.19,0,0,0-11.106-3.366H0v32.7H12.253c.169,0,.331,0,.492-.008.089,0,.178,0,.258-.008a14.723,14.723,0,0,0,4.077-.517c.3-.073.581-.161.847-.25a16.815,16.815,0,0,0,8.58-7.092,24.965,24.965,0,0,0,2.772-6l1.337-4.17,1.3-3.9.654-1.953,2.833,8.37h8.039Z" transform="translate(0 -68.195)" fill="#f85606"/>
      <path id="Path_2014" data-name="Path 2014" d="M184.446,165.221h-8.038l6.214-17.174h9.224l11.823,32.693h-8.337l-8.054-23.888Z" transform="translate(-81.258 -68.195)" fill="#252328"/>
      <path id="Path_2015" data-name="Path 2015" d="M170.311,186.56h12.38l2.091,6.149h-8.4l-1.953,5.77h-8.434Z" transform="translate(-76.462 -85.935)" fill="#252328"/>
      <path id="Path_2016" data-name="Path 2016" d="M136.6,57.886l-3.567-26.447a9.334,9.334,0,0,0-9.245-8.088H91.723a9.312,9.312,0,0,0-9.238,8.088L78.917,57.886A3.916,3.916,0,0,0,82.8,62.323h49.923a3.914,3.914,0,0,0,3.881-4.437M101.857,40.56c1.362-1.033,3.773-.689,5.923.766,2.154-1.455,4.565-1.8,5.928-.766,1.259.951,1.46,2.977,1.624,4.519a12.02,12.02,0,0,1,0,2.386h-15.1a12.144,12.144,0,0,1,0-2.386c.16-1.543.366-3.568,1.625-4.519m5.908,18.72a6.828,6.828,0,0,1-6.679-5.414h13.352a6.826,6.826,0,0,1-6.673,5.414m0-7.2c-9.009,0-16.314-1.368-16.314-3.054,0-1.013,2.647-1.913,6.725-2.468,0,.371.025.751.062,1.116l.113,1.126a.761.761,0,0,0,.75.679h17.363a.761.761,0,0,0,.75-.679l.113-1.126c.037-.365.057-.735.061-1.106,4.052.556,6.684,1.45,6.684,2.458,0,1.686-7.306,3.054-16.308,3.054" transform="translate(-36.335 -10.756)" fill="#f85606"/>
      <path id="Path_2017" data-name="Path 2017" d="M166.975,111.634l-.04-.293a4.829,4.829,0,0,0-4.786-4.183H150.93A10.547,10.547,0,0,0,140.384,117.7v4.52h17.335a9.34,9.34,0,0,0,9.256-10.591" transform="translate(-64.665 -49.36)" fill="#f85606"/>
      <path id="Path_2018" data-name="Path 2018" d="M91.13,107.157H79.919a4.83,4.83,0,0,0-4.789,4.2l-.038.287a9.36,9.36,0,0,0,9.28,10.58h17.3V117.7A10.546,10.546,0,0,0,91.13,107.157" transform="translate(-34.552 -49.36)" fill="#f85606"/>
      <path id="Path_2019" data-name="Path 2019" d="M132.835,16.284C131.767,6.694,126.773-.137,122.579,0c-3.981.117-8.58,6.756-9.32,16.306a1.828,1.828,0,1,0,1.588.1c.7-8.974,4.93-14.728,7.778-14.811,3.033-.079,7.623,5.6,8.629,14.847a1.817,1.817,0,1,0,1.58-.157" transform="translate(-51.657 0)" fill="#000002"/>
    </g>
  </g>
</svg>
