<svg id="Group_6621" data-name="Group 6621" xmlns="http://www.w3.org/2000/svg" xmlns:xlink="http://www.w3.org/1999/xlink" width="87.499" height="68.938" viewBox="0 0 87.499 68.938">
  <defs>
    <clipPath id="clip-path">
      <rect id="Rectangle_1" data-name="Rectangle 1" width="87.499" height="68.938" fill="none"/>
    </clipPath>
  </defs>
  <path id="Path_1" data-name="Path 1" d="M131.746,148.057l-6.5,8.56v2.847l6.561,8.617h5.961l-8.044-10.212,7.759-9.813Z" transform="translate(-83.867 -99.144)" fill="#252328"/>
  <path id="Path_2" data-name="Path 2" d="M233.454,148.057l-6.5,8.56v2.847l6.561,8.617h5.962l-8.044-10.212,7.759-9.813Z" transform="translate(-151.973 -99.144)" fill="#252328"/>
  <g id="Group_2" data-name="Group 2">
    <g id="Group_1" data-name="Group 1" clip-path="url(#clip-path)">
      <path id="Path_3" data-name="Path 3" d="M100.1,168.074H94.589l-3.209-5.823-.954-1.735-1.1-1.99-.8-1.458h3.754c1.823,0,2.68-.945,2.68-2.513,0-1.483-.857-2.45-2.68-2.45H88.527v-4.053h4.04c4.9,0,7.357,2.822,7.357,6.3a5.831,5.831,0,0,1-4.45,5.791Z" transform="translate(-59.281 -99.14)" fill="#fff"/>
      <path id="Path_4" data-name="Path 4" d="M67.047,193.869H61.881l-1.2-3.535H55.251a11.38,11.38,0,0,0,1.35-3.288c.04-.158.074-.316.109-.479H64.4Z" transform="translate(-36.998 -124.931)" fill="#fff"/>
      <path id="Path_5" data-name="Path 5" d="M22.8,148.047H17.15l-.489,1.354-.8,2.2-3.248,8.978a4.139,4.139,0,0,1-3.169,2.952,7.438,7.438,0,0,1-2.259.321H4.88V152.215H7.188c2.581,0,4.415,1.063,5.28,2.966l1.839-5.072a11.142,11.142,0,0,0-6.8-2.061H0v20.028H7.5c.1,0,.2,0,.3,0,.055,0,.109,0,.158,0a9.017,9.017,0,0,0,2.5-.316c.183-.045.356-.1.519-.153a10.3,10.3,0,0,0,5.255-4.344,15.291,15.291,0,0,0,1.7-3.672l.819-2.554.8-2.388.4-1.2,1.735,5.127h4.924Z" transform="translate(0 -99.137)" fill="#fff"/>
      <path id="Path_6" data-name="Path 6" d="M181.331,158.566h-4.923l3.806-10.519h5.65l7.242,20.025H188l-4.933-14.632Z" transform="translate(-118.128 -99.137)" fill="#252328"/>
      <path id="Path_7" data-name="Path 7" d="M168.638,186.56h7.583l1.28,3.767h-5.146l-1.2,3.534h-5.166Z" transform="translate(-111.155 -124.927)" fill="#252328"/>
      <path id="Path_8" data-name="Path 8" d="M114.236,44.5l-2.185-16.2a5.717,5.717,0,0,0-5.662-4.954H86.747A5.7,5.7,0,0,0,81.089,28.3L78.9,44.5a2.4,2.4,0,0,0,2.377,2.718h30.578a2.4,2.4,0,0,0,2.377-2.718M92.954,33.891c.835-.633,2.311-.422,3.628.469,1.319-.891,2.8-1.1,3.631-.469.771.582.894,1.823.995,2.768a7.361,7.361,0,0,1,0,1.461H91.959a7.438,7.438,0,0,1,0-1.461c.1-.945.224-2.186,1-2.768m3.619,11.466a4.182,4.182,0,0,1-4.091-3.316h8.178a4.181,4.181,0,0,1-4.087,3.316m0-4.412c-5.518,0-9.992-.838-9.992-1.871,0-.62,1.621-1.171,4.119-1.512,0,.227.016.46.038.684l.069.689a.466.466,0,0,0,.46.416H101.9a.466.466,0,0,0,.459-.416l.069-.689c.022-.224.035-.45.038-.677,2.482.34,4.094.888,4.094,1.505,0,1.033-4.475,1.871-9.989,1.871" transform="translate(-52.822 -15.637)" fill="#fff"/>
      <path id="Path_9" data-name="Path 9" d="M156.671,109.9l-.024-.18a2.958,2.958,0,0,0-2.931-2.562h-6.872a6.46,6.46,0,0,0-6.46,6.46v2.769H151a5.721,5.721,0,0,0,5.669-6.487" transform="translate(-94.006 -71.756)" fill="#fff"/>
      <path id="Path_10" data-name="Path 10" d="M84.884,107.157H78.017a2.958,2.958,0,0,0-2.933,2.572l-.023.176a5.733,5.733,0,0,0,5.684,6.48h10.6v-2.769a6.46,6.46,0,0,0-6.459-6.46" transform="translate(-50.23 -71.756)" fill="#fff"/>
      <path id="Path_11" data-name="Path 11" d="M124.818,9.974C124.164,4.1,121.1-.084,118.536,0c-2.438.071-5.255,4.138-5.709,9.987a1.12,1.12,0,1,0,.973.059c.43-5.5,3.02-9.021,4.764-9.072,1.858-.049,4.669,3.428,5.286,9.094a1.113,1.113,0,1,0,.968-.1" transform="translate(-75.096 0)" fill="#000002"/>
    </g>
  </g>
</svg>
