<svg xmlns="http://www.w3.org/2000/svg" width="82.562" height="46.878" viewBox="0 0 82.562 46.878">
  <g id="Group_6617" data-name="Group 6617" transform="translate(-985.298 -1209.614)">
    <path id="Path_2135" data-name="Path 2135" d="M196.043,149.925A25.3,25.3,0,0,0,212.625,156c13.749-.15,24.766-10.767,24.6-23.711-.157-12.734-11.083-23.02-24.606-23.167a25.293,25.293,0,0,0-16.58,6.074,22.5,22.5,0,0,0-1.695,33.131q.805.837,1.695,1.6" transform="translate(830.628 1100.491)" fill="#e9b040" fill-rule="evenodd"/>
    <path id="Path_2136" data-name="Path 2136" d="M244.424,156.349a.744.744,0,0,1,.762-.723h.007a.758.758,0,0,1,.81.7c0,.008,0,.018,0,.027a.76.76,0,0,1-.758.765.309.309,0,0,1-.053,0,.753.753,0,0,1-.77-.736l0-.029m.769.6a.64.64,0,0,0,.641-.6.606.606,0,0,0-.641-.564.594.594,0,0,0-.6.564.632.632,0,0,0,.6.6m-.086-.241h-.167v-.685h.3a.266.266,0,0,1,.167.042c.085.04.085.08.085.158s-.041.158-.127.158l.167.314h-.216l-.085-.285H245.1v-.121h.167c.042,0,.042-.042.042-.08s0-.042-.042-.08H245.1Z" transform="translate(820.284 1089.762)" fill="#e9b040" fill-rule="evenodd"/>
    <path id="Path_2137" data-name="Path 2137" d="M196.6,130.126a24.812,24.812,0,0,0-.428-2.5H181.04a23.27,23.27,0,0,1,.685-2.455h13.719a26,26,0,0,0-1.025-2.495H182.794q.642-1.279,1.408-2.5h8.763a21.171,21.171,0,0,0-1.881-2.454h-5a23.846,23.846,0,0,1,2.521-2.5,25.92,25.92,0,0,0-35.055,1.852,22.429,22.429,0,0,0,1.965,33,25.72,25.72,0,0,0,16.468,5.947,25.408,25.408,0,0,0,16.625-6.076,22.85,22.85,0,0,0,2.479-2.455h-5a27.835,27.835,0,0,1-1.881-2.5h8.763a18.337,18.337,0,0,0,1.453-2.495H182.794a25.138,25.138,0,0,1-1.069-2.455h13.72a23.9,23.9,0,0,0,.726-2.5,23.312,23.312,0,0,0,.428-2.5,23.031,23.031,0,0,0,.129-2.455,23.923,23.923,0,0,0-.129-2.493Z" transform="translate(838.064 1100.453)" fill="#cc2131" fill-rule="evenodd"/>
    <path id="Path_2138" data-name="Path 2138" d="M244.424,146.451a.749.749,0,0,1,.739-.762h.029a.808.808,0,0,1,.874.723.792.792,0,0,1-.767.823.807.807,0,0,1-.874-.723.488.488,0,0,1,0-.06m.769.564a.565.565,0,1,0-.6-.564.582.582,0,0,0,.6.564Zm-.086-.241h-.167v-.644h.471c.085.041.085.121.085.2a.218.218,0,0,1-.127.157l.167.282h-.22l-.085-.241H245.1v-.122h.085c.042,0,.086,0,.086-.041.041,0,.041-.04.041-.081a.04.04,0,0,0-.041-.039c0-.042-.044,0-.086,0H245.1Z" transform="translate(820.284 1092.055)" fill="#fff" fill-rule="evenodd"/>
    <path id="Path_2139" data-name="Path 2139" d="M180.541,144.788a8.375,8.375,0,0,1-2.006.314,1.909,1.909,0,0,1-2.052-2.131,6.914,6.914,0,0,1,.086-.888l.167-.925.129-.765,1.153-6.6h2.565l-.3,1.448H181.9l-.384,2.414H179.9l-.684,3.936a1.766,1.766,0,0,0-.044.4c0,.522.257.724.9.724a5.05,5.05,0,0,0,.813-.079l-.334,2.131Zm8.291-.081a10.6,10.6,0,0,1-2.735.362,4.061,4.061,0,0,1-4.572-3.369,3.665,3.665,0,0,1,0-.936c0-3.339,1.966-5.755,4.7-5.755a3.354,3.354,0,0,1,3.6,3.049,3.086,3.086,0,0,1-.009.452,10.443,10.443,0,0,1-.3,2.375h-5.35a1.086,1.086,0,0,0-.044.315c0,1.128.813,1.689,2.351,1.689a6.764,6.764,0,0,0,2.779-.6Zm-1.582-5.753v-.482a1.129,1.129,0,0,0-1.025-1.243,1.191,1.191,0,0,0-.257,0c-.855,0-1.454.6-1.71,1.731h2.99Zm-27.223,5.955h-2.651l1.538-9.13-3.463,9.13h-1.838l-.214-9.093-1.625,9.093h-2.6l2.1-11.87h3.882l.085,7.325,2.606-7.325h4.276Zm6.453-4.306a2.552,2.552,0,0,0-.513-.041c-1.539,0-2.307.564-2.307,1.449a.927.927,0,0,0,.862,1c.039,0,.08.005.121,0,1.282,0,1.793-1.006,1.839-2.415Zm2.137,4.306h-2.308l.044-1.006a3.219,3.219,0,0,1-2.82,1.167,2.493,2.493,0,0,1-2.4-2.608l0-.048a4.044,4.044,0,0,1,.214-1.247c.426-1.489,2.006-2.414,4.444-2.455.3,0,.769,0,1.2.042a2.028,2.028,0,0,0,.085-.645c0-.643-.554-.845-1.793-.845a7.552,7.552,0,0,0-2.222.316l-.385.08-.167.038.384-2.172a10.6,10.6,0,0,1,3.118-.521c2.307,0,3.548,1.005,3.548,2.857a8.557,8.557,0,0,1-.129,1.889l-.6,3.463-.085.6-.043.482-.044.315-.043.28Zm33.122-9.576a5.354,5.354,0,0,1,2.392.643l.471-2.575a6.18,6.18,0,0,0-.685-.242l-1.068-.285a8.049,8.049,0,0,0-4.147.362,7.928,7.928,0,0,0-1.581,1.288l-.334-.081-2.735,1.81.129-1h-2.826l-1.672,9.657h2.693l.983-5.2s.385-.725.556-.965a1.6,1.6,0,0,1,1.494-.6h.214A12.166,12.166,0,0,0,195.5,140c0,3.139,1.881,5.111,4.786,5.111a9.128,9.128,0,0,0,2.351-.315l.463-2.749a5.061,5.061,0,0,1-2.264.643c-1.581,0-2.521-1.127-2.521-2.9,0-2.617,1.408-4.466,3.421-4.466Zm22.693-2.295-.6,3.379a2.8,2.8,0,0,0-2.436-1.368,4.047,4.047,0,0,0-3.548,2.213v-.04l-1.707-.966.168-1.006h-2.861l-1.623,9.658h2.645l.9-5.2s.684-.725.855-.965a1.7,1.7,0,0,1,1.2-.6A8.26,8.26,0,0,0,216.95,141c0,2.414,1.324,4.025,3.291,4.025a3.186,3.186,0,0,0,2.479-1.085l-.127.965h2.521l2.052-11.87h-2.734Zm-3.289,9.578c-.9,0-1.368-.645-1.368-1.889,0-1.89.855-3.261,2.093-3.261.94,0,1.409.685,1.409,1.889,0,1.932-.855,3.261-2.137,3.261ZM208.786,140.6a2.539,2.539,0,0,0-.512-.041c-1.54,0-2.309.564-2.309,1.449a.927.927,0,0,0,.861,1c.04,0,.081.005.122,0,1.287,0,1.8-1.006,1.838-2.414m2.137,4.306h-2.346l.085-1.006a3.218,3.218,0,0,1-2.82,1.167,2.511,2.511,0,0,1-2.485-2.553c0-.033,0-.068.007-.1,0-2.293,1.839-3.7,4.743-3.7.385,0,.77.008,1.154.042a2.346,2.346,0,0,0,.128-.645c0-.643-.553-.845-1.838-.845a7.823,7.823,0,0,0-2.222.316l-.335.08-.167.038.384-2.172a10.6,10.6,0,0,1,3.118-.521c2.307,0,3.511,1.005,3.511,2.857a6.516,6.516,0,0,1-.127,1.889l-.553,3.463-.086.6-.085.482-.042.315v.28ZM174.216,137.3a13.468,13.468,0,0,1,2.006.158l.385-2.253c-.77-.079-1.8-.2-2.395-.2-2.99,0-3.973,1.529-3.973,3.306a2.762,2.762,0,0,0,2.006,2.656c1.068.483,1.239.564,1.239,1.007,0,.6-.554.965-1.582.965a7.58,7.58,0,0,1-2.436-.4l-.3,2.213.042.04.513.08c.226.052.454.091.685.121.64.042,1.2.079,1.538.079,2.991,0,4.232-1.085,4.232-3.221a2.763,2.763,0,0,0-2.006-2.694c-1.154-.484-1.282-.564-1.282-1.007s.513-.845,1.324-.845Z" transform="translate(837.71 1095.046)" fill="#1b3771" fill-rule="evenodd"/>
    <path id="Path_2140" data-name="Path 2140" d="M205.509,132.427,205.037,135a5.365,5.365,0,0,0-2.392-.645c-2.006,0-3.421,1.852-3.421,4.466,0,1.809.94,2.9,2.521,2.9a5.493,5.493,0,0,0,2.264-.6l-.471,2.7a9.4,9.4,0,0,1-2.35.362c-2.906,0-4.7-1.972-4.7-5.151,0-4.225,2.48-7.2,6.019-7.2a5.586,5.586,0,0,1,1.239.122l1.068.242c.334.121.428.157.684.241ZM196.88,134.2h-.257c-.9,0-1.408.4-2.222,1.574l.257-1.489h-2.441l-1.672,9.657h2.694c.983-5.916,1.239-6.926,2.521-6.926h.167a9.738,9.738,0,0,1,1.025-2.776l-.085-.04Zm-15.473,9.617a5.853,5.853,0,0,1-1.923.315,1.945,1.945,0,0,1-2.15-1.681,1.771,1.771,0,0,1,.013-.451,6.278,6.278,0,0,1,.086-.845l.167-.965.129-.763,1.154-6.6h2.651l-.3,1.449H182.6l-.334,2.374H180.9l-.739,4.033a1.421,1.421,0,0,0-.043.4c0,.483.256.685.9.685a1.882,1.882,0,0,0,.726-.08l-.335,2.132Zm-10.3-6.479a2.833,2.833,0,0,0,2.007,2.7c1.112.483,1.282.644,1.282,1.047,0,.6-.47.884-1.539.884a8.44,8.44,0,0,1-2.392-.362l-.384,2.213.128.041.471.081a2.983,2.983,0,0,0,.726.08,10.409,10.409,0,0,0,1.453.08c2.82,0,4.147-1.006,4.147-3.221a2.68,2.68,0,0,0-1.881-2.7c-1.154-.482-1.284-.6-1.284-1.043,0-.521.47-.765,1.324-.765a17.823,17.823,0,0,1,1.923.122l.385-2.213a16.581,16.581,0,0,0-2.351-.2c-2.991,0-4.062,1.489-4.013,3.259m54.877,6.6h-2.521l.129-.926a3.288,3.288,0,0,1-2.48,1.047c-1.966,0-3.248-1.574-3.248-3.982,0-3.221,2.006-5.956,4.358-5.956a3.123,3.123,0,0,1,2.565,1.325l.6-3.379h2.651l-2.052,11.87Zm-3.932-2.253c1.241,0,2.095-1.368,2.095-3.259,0-1.247-.471-1.889-1.408-1.889-1.2,0-2.093,1.325-2.093,3.22q0,1.932,1.408,1.932Zm-32.435,2.047a9.273,9.273,0,0,1-2.78.4,4.027,4.027,0,0,1-4.54-3.332,3.632,3.632,0,0,1,.01-1.014c0-3.306,1.967-5.754,4.66-5.754a3.369,3.369,0,0,1,3.638,3.03,3.022,3.022,0,0,1-.007.471,9.221,9.221,0,0,1-.334,2.414h-5.312a.754.754,0,0,0-.043.285c0,1.127.813,1.689,2.351,1.689a6.186,6.186,0,0,0,2.779-.6l-.428,2.414Zm-1.5-5.753v-.483a1.128,1.128,0,0,0-1.025-1.242,1.2,1.2,0,0,0-.257,0c-.854,0-1.453.6-1.71,1.732h2.991Zm-27.231,5.963H158.24l1.539-9.13-3.461,9.13H154.48l-.214-9.054-1.623,9.054h-2.48l2.1-11.87h3.846l.127,7.364,2.565-7.364h4.187l-2.091,11.87Zm6.624-4.3c-.256,0-.384-.04-.6-.04-1.5,0-2.263.522-2.263,1.489a.859.859,0,0,0,.767.958.986.986,0,0,0,.172.007c1.113,0,1.882-.965,1.923-2.414m1.967,4.3h-2.222l.042-1.005a3.428,3.428,0,0,1-2.821,1.169,2.409,2.409,0,0,1-2.453-2.365,1.993,1.993,0,0,1,.018-.252c0-2.374,1.71-3.741,4.7-3.741.3,0,.684.041,1.112.08a1.915,1.915,0,0,0,.085-.6c0-.644-.47-.885-1.71-.885a9.341,9.341,0,0,0-2.222.242l-.384.121-.257.042.385-2.172a11.331,11.331,0,0,1,3.2-.483c2.307,0,3.548.965,3.548,2.816a11.55,11.55,0,0,1-.214,1.932l-.6,3.424-.085.6-.044.483-.043.362-.042.242Zm40.345-4.3c-.3,0-.428-.04-.6-.04-1.539,0-2.309.522-2.309,1.489a.894.894,0,0,0,.834.962,1.064,1.064,0,0,0,.149,0c1.068,0,1.881-.965,1.923-2.414Zm1.966,4.3h-2.222l.042-1.005a3.424,3.424,0,0,1-2.82,1.169,2.41,2.41,0,0,1-2.454-2.365,2.153,2.153,0,0,1,.018-.252c0-2.374,1.71-3.741,4.7-3.741.3,0,.684.041,1.069.08a2.424,2.424,0,0,0,.13-.606c0-.644-.471-.884-1.71-.884a9.638,9.638,0,0,0-2.263.241l-.335.122-.256.041.384-2.172a11.391,11.391,0,0,1,3.2-.483c2.308,0,3.511.965,3.511,2.816a8.14,8.14,0,0,1-.214,1.931l-.568,3.427-.085.6-.086.483-.042.362v.242Zm7.179-9.737h-.256c-.9,0-1.409.4-2.222,1.574l.256-1.489h-2.436l-1.623,9.657h2.648c.983-5.916,1.241-6.926,2.521-6.926h.167a9.713,9.713,0,0,1,1.025-2.776l-.086-.04Z" transform="translate(837.528 1095.255)" fill="#fff" fill-rule="evenodd"/>
  </g>
</svg>
