<svg xmlns="http://www.w3.org/2000/svg" width="82.563" height="34.639" viewBox="0 0 82.563 34.639">
  <g id="Group_6616" data-name="Group 6616" transform="translate(-865 -1215.734)">
    <path id="Path_2080" data-name="Path 2080" d="M63.4,131.915H49.565a.455.455,0,0,0-.466.465v1.062a.455.455,0,0,0,.466.465H59.877v5.707a7.821,7.821,0,0,0-1-1.195,5.32,5.32,0,0,0-3.859-1.859,3.347,3.347,0,0,0-2.727,1.527,4.6,4.6,0,0,0-.931,2.654,5.313,5.313,0,0,0,.864,3.119,3.951,3.951,0,0,0,3.393,1.659A2.759,2.759,0,0,0,58.547,143a2.029,2.029,0,0,0-1.2-1.925l-.731-.4V141.8a1.4,1.4,0,0,1-1.264.8,1.75,1.75,0,0,1-1.331-.531,1.188,1.188,0,0,1-.266-.928,1.665,1.665,0,0,1,.466-1.129,1.425,1.425,0,0,1,1.2-.6,4.091,4.091,0,0,1,3.459,1.991,6.262,6.262,0,0,1,1.131,3.45v2.854l2.062,1.261a.246.246,0,0,0,.2.066.455.455,0,0,0,.466-.465V133.906h.8a.454.454,0,0,0,.466-.465V132.38C63.8,132.114,63.6,131.915,63.4,131.915Z" transform="translate(856.018 1095.233)" fill="#ec1c24"/>
    <path id="Path_2081" data-name="Path 2081" d="M94.291,131.835h-17.5a.454.454,0,0,0-.466.465v1.924c-1.664-1.792-3.193-2.654-4.59-2.654a5.488,5.488,0,0,0-3.327,1,3.217,3.217,0,0,0-1.4,2.588c0,3.052,3.459,3.052,4.258,2.588a1.268,1.268,0,0,1,.6-.2.92.92,0,0,1,.931,1c0,.73-1,1.327-2.2,1.327a1.555,1.555,0,0,1-1.4-.6l-.533-.8-.4.929a2.3,2.3,0,0,0-.2.8,2.419,2.419,0,0,0,1,1.925,3.44,3.44,0,0,0,2.2.8,3.777,3.777,0,0,0,3.127-1.394,4.1,4.1,0,0,0,.864-2.654,3,3,0,0,0-.665-1.792,2.347,2.347,0,0,0-2-1.195,3.28,3.28,0,0,0-1,.2c-.133-.066-.333,0-.4,0a.576.576,0,0,1-.466-.265.885.885,0,0,1-.266-.664,1.755,1.755,0,0,1,1.929-1.526h.066a3.454,3.454,0,0,1,2.4,1.195,7.49,7.49,0,0,1,1.463,1.858v10.883l2.062,1.195a.247.247,0,0,0,.2.066.454.454,0,0,0,.466-.464v-14.6h3.127v9.423l2.461,1h.133a.57.57,0,0,0,.466-.4v-.066a7.611,7.611,0,0,1,3.726-5.906v.531c0,.4,0,1.393.066,1.991a2.251,2.251,0,0,0,.067.73,14.291,14.291,0,0,0,.532,3.981c.665,2.323,1.863,2.854,2.728,2.92h.066a1.461,1.461,0,0,0,1.131-.4,1.3,1.3,0,0,0,.333-.862,1.86,1.86,0,0,0-.2-1l-.2-.332-.4.066c-.466.133-.6.133-.6.066h-.066c-.133,0-.133,0-.2-.066-.133-.066-.4-.332-.6-1.062a8.574,8.574,0,0,1-.2-1.725c0-3.052.665-5.375,1.6-5.906h.066a.447.447,0,0,0,.266-.4.245.245,0,0,0-.066-.2v-.066a4.329,4.329,0,0,0-2.861-1.991h-.266a9.693,9.693,0,0,0-4.058,2.322c-.4.332-.8.73-1.2,1.062v-3.782h9.447a.454.454,0,0,0,.466-.464v-1.062A.634.634,0,0,0,94.291,131.835Z" transform="translate(852.74 1095.312)" fill="#ec1c24"/>
    <path id="Path_2082" data-name="Path 2082" d="M32.4,136.72a8.914,8.914,0,0,1-.066,1.327,16.045,16.045,0,0,1-1.4,5.376,17.933,17.933,0,0,1-1.065,1.924,16.175,16.175,0,1,1-20.89-23.092,15.491,15.491,0,0,0-1.131,1.725c0,.067-.066.067-.066.133-.2.2-.4.332-.6.531a7.605,7.605,0,0,0-.732.73c-.066.066-.133.132-.133.2-.066.066-.133.132-.133.2l-.266.265a3.547,3.547,0,0,0-.466.6,15.2,15.2,0,0,0-1.664,2.853c-.066.133-.066.2-.133.332s-.066.265-.133.332c-.2.132-.2.2-.2.265l-.2.6c-.067.133-.067.265-.133.4,0,.066-.067.132-.067.2,0,.132-.066.265-.066.4a5.716,5.716,0,0,0-.2,1.129.593.593,0,0,1-.067.332v1.659a13.944,13.944,0,0,0,5.19,10.883,14.2,14.2,0,0,0,17.231.531,13.207,13.207,0,0,0,4.124-4.645c.133-.266.266-.465.4-.73a14.3,14.3,0,0,0,1.33-5.574v-.465a9.832,9.832,0,0,0-.066-1.394l.066.066a2.615,2.615,0,0,0,.665.532,4.713,4.713,0,0,1,.666-.929,17.711,17.711,0,0,1,.266,1.858,5.527,5.527,0,0,0-.066,1.46" transform="translate(865 1097.462)" fill="#ec1c24"/>
    <path id="Path_2083" data-name="Path 2083" d="M31.369,135.7v.465a13.933,13.933,0,0,1-1.331,5.574c-.132.265-.266.465-.4.73a13.886,13.886,0,0,1-4.124,4.645,14.2,14.2,0,0,1-17.232-.531A13.945,13.945,0,0,1,3.094,135.7v-1.659a.594.594,0,0,1,.067-.332c.066-.4.2-.8.266-1.195,0-.132.067-.265.067-.4,0-.066.066-.133.066-.2.067-.133.067-.265.133-.4.066-.2.133-.332.2-.531,0-.066.067-.132.067-.2.066-.133.066-.266.132-.332.067-.132.067-.2.133-.332a13.387,13.387,0,0,1,1.664-2.853c.133-.2.333-.4.466-.6.066-.066.133-.2.266-.265.066-.066.066-.132.133-.2s.132-.132.132-.2a7.538,7.538,0,0,1,.732-.73,4.264,4.264,0,0,1,.6-.531.23.23,0,0,1-.067.132c0,.066-.066.133-.066.2a16.776,16.776,0,0,0-1.53,5.707,14.462,14.462,0,0,0-.066,1.725c0,7.366,4.324,13.338,9.713,13.338h.6a8.457,8.457,0,0,0,2.262-.332,8.544,8.544,0,0,0,6.321-8.229v-.265a8.323,8.323,0,0,0-2.661-5.906,12.361,12.361,0,0,1,3.193.465,14.848,14.848,0,0,1,5.322,2.654l.067.066c0,.465.066.929.066,1.394" transform="translate(864.434 1096.884)" fill="#f6921e"/>
    <path id="Path_2084" data-name="Path 2084" d="M31.354,135.665v.465a14.183,14.183,0,0,1-1.331,5.64c-.132.265-.266.465-.4.73a14.786,14.786,0,0,1-4.124,4.712,14.3,14.3,0,0,1-17.3-.531,14.06,14.06,0,0,1-5.189-10.95,14.253,14.253,0,0,1,5.255-11.015l.133-.133c0,.066-.066.066-.066.133a.23.23,0,0,1-.067.132,14.052,14.052,0,0,0,.133,21.7,13.468,13.468,0,0,0,8.782,3.186,14.205,14.205,0,0,0,8.25-2.655,14.542,14.542,0,0,0,4.124-4.645c.133-.265.266-.465.4-.73a12.567,12.567,0,0,0,1.331-5.574v-.465a8.374,8.374,0,0,0-.067-1.327v-.067l.067.067.066.066Z" transform="translate(864.449 1096.924)" fill="#f6921e"/>
    <path id="Path_2085" data-name="Path 2085" d="M29.178,125.312s-11.576-2.19-16.965,7.83c0,0,.931-6.9,9.181-10.087L19.732,120a11.74,11.74,0,0,1,9.114-2.19Z" transform="translate(862.766 1098.517)" fill="#ec1c24"/>
    <path id="Path_2086" data-name="Path 2086" d="M15.471,132.114s4.59-6.039,15.169-4.446l-.133-3.517a12.921,12.921,0,0,1,7.983,2.92L34.1,133.707s-2.994-3.517-9.247-3.583a20.062,20.062,0,0,0-9.381,1.991" transform="translate(862.17 1097.024)" fill="#f6921e"/>
    <path id="Path_2087" data-name="Path 2087" d="M18.275,137.011s-1,.2-.931-.265c0-.2.133-.265.2-.2,0-.066-.2-.332.266-.465a5.859,5.859,0,0,0,.333-.531c.067-.132.133-.332.533-.2a1.517,1.517,0,0,1,.864.6.977.977,0,0,1,.4.066l-.133.133s.133.066-.266.066a.143.143,0,0,0,.133.132c.066.067,0,.067,0,.133,0,0,.066.2-.133.132s-.2-.132-.266-.132-.2,0-.2.066.2.2,0,.2c-.066.066.067.132,0,.132a3.44,3.44,0,0,1-.732.465c-.2,0-.266-.066-.266-.132s.133-.133.266-.133c-.066,0,0-.066-.066-.066" transform="translate(861.828 1094.45)" fill="#ec1c24"/>
    <path id="Path_2088" data-name="Path 2088" d="M18.343,138.639c-.066,0-.4-.2-.2-.265a7.247,7.247,0,0,1,.931-.6.148.148,0,0,1,.133.265,7.132,7.132,0,0,1-.865.6" transform="translate(861.692 1093.883)" fill="#ec1c24"/>
    <path id="Path_2089" data-name="Path 2089" d="M19.624,138.1c0-.132.133-.53.133-.6s.333-.133.266.265c-.133.332-.4.465-.4.332" transform="translate(861.41 1093.954)" fill="#ec1c24"/>
    <path id="Path_2090" data-name="Path 2090" d="M20.06,137.254s1.862-.066,2,0a2.409,2.409,0,0,1,.6,1.925c-.133.862-.4,1.062-1.6,1.194a3.454,3.454,0,0,0-.2-1.194c-.133-.2-.532-.664-.665-.664,0,.2-.067.8-.067.8s-.6.066-.665-.066v-.929a5.061,5.061,0,0,0,.6-.6c.065.066.132.332.732.265,0,.066-.732.132-.732-.73" transform="translate(861.44 1094.007)" fill="#ec1c24"/>
    <path id="Path_2091" data-name="Path 2091" d="M19.126,138.385s-.6.465-.732.6c-.066.133-.133.664.6.664a5.282,5.282,0,0,0,.133-1.261" transform="translate(861.642 1093.74)" fill="#ec1c24"/>
    <path id="Path_2092" data-name="Path 2092" d="M17.514,139.191c-.2,0-.333-.066-.333-.2a.4.4,0,0,1,.466-.265c.133.066.466.133.466.73a1.355,1.355,0,0,0,.931.4c.466,0,.731,0,.731.132v.863a4.133,4.133,0,0,1-1.862-.929.6.6,0,0,1-.2-.465c0-.2-.133-.265-.2-.265" transform="translate(861.857 1093.664)" fill="#ec1c24"/>
    <path id="Path_2093" data-name="Path 2093" d="M16.973,139.42c-.2,0-.865.531-.4.73l.266-.265s-.133.332.133.4.133-.132.266-.132c.066.132.066.2.2.2s.133-.4,0-.6a.443.443,0,0,0-.466-.332" transform="translate(861.998 1093.501)" fill="#ec1c24"/>
    <path id="Path_2094" data-name="Path 2094" d="M20.519,139.506v1.725s.532-.2.6-.332c0-.266-.133-1.394-.6-1.394" transform="translate(861.246 1093.481)" fill="#ec1c24"/>
    <path id="Path_2095" data-name="Path 2095" d="M18.809,140.973a5.824,5.824,0,0,0,1.065.6c-.067.067-.333.465-.466.4a2.567,2.567,0,0,1-.6-1" transform="translate(861.559 1093.143)" fill="#ec1c24"/>
    <path id="Path_2096" data-name="Path 2096" d="M14.819,141.835h.931v.332h-.865Z" transform="translate(862.289 1092.943)" fill="#ec1c24"/>
    <path id="Path_2097" data-name="Path 2097" d="M26.1,141.577H22.311l.6.465H26.1Z" transform="translate(860.918 1093.003)" fill="#ec1c24"/>
    <path id="Path_2098" data-name="Path 2098" d="M21.175,141.574c.066-.066.532.265.4.332s-1.331.531-1.4.531c-.133-.066-.067-.332.066-.4a5.968,5.968,0,0,0,.931-.465" transform="translate(861.322 1093.006)" fill="#ec1c24"/>
    <path id="Path_2099" data-name="Path 2099" d="M19.648,142.491c-.133-.066-.865.664-.532.73a6.491,6.491,0,0,1,1.33.332.525.525,0,0,0,.333-.332c.133,0,.333.2.533.132a3.89,3.89,0,0,0,1.131-.862,2.245,2.245,0,0,0-.8-.4c-.133-.066-1.331.664-2,.4" transform="translate(861.519 1092.885)" fill="#ec1c24"/>
    <path id="Path_2100" data-name="Path 2100" d="M18.806,143.66c.066,0,1.065.332,1.264.332.266-.066.266-.265.4-.265s.2.133.4,0a9.074,9.074,0,0,0,.732-.6c0,.132,0,.531-.865.929s-2.927,1-2.994,1.261a3.032,3.032,0,0,0,.533-.133.754.754,0,0,1,.266.8c-.066.465-.4,1.195-.4,1.394v1.261c0,.066.2.663-.067.6a.715.715,0,0,0-.532,0c-.133,0-.333.2-.466.133-.2,0-.466-.133-.466-.2s.2-.066.4-.133.266-.265.6-.4c0-.2-.133-1.859-.133-2.19s-.132-1.062.067-1.327c.133-.4.931-1.526,1.264-1.46" transform="translate(861.961 1092.645)" fill="#ec1c24"/>
    <path id="Path_2101" data-name="Path 2101" d="M20.845,144.828c0,.133.6,1.592.865,1.592s2.727-.531,3.193-.332c.133.2.4.531.4.73,0,0,.066.465,0,.531a.455.455,0,0,0,.333-.2,4.355,4.355,0,0,0,0-.928c0-.133.333-.73-.067-.664a18.8,18.8,0,0,1-1.929-.066c-.333-.067-1.2-.265-1.4-.133a1.535,1.535,0,0,0-.466.531c-.066,0-.133-.066,0-.332a4.286,4.286,0,0,0,.333-1.394c-.2.067-1.264.664-1.264.664" transform="translate(861.186 1092.406)" fill="#ec1c24"/>
    <path id="Path_2102" data-name="Path 2102" d="M18.7,141.988a.5.5,0,0,0,.133.265l-1.929-.132s-.2-.133-.133-.2Z" transform="translate(861.934 1092.924)" fill="#ec1c24"/>
    <path id="Path_2103" data-name="Path 2103" d="M16.469,141.736H18.4s-.133-.2-.2-.332H16.4s-.2,0-.2.4c0,.067.133.2.266-.066" transform="translate(862.036 1093.043)" fill="#ec1c24"/>
    <path id="Path_2104" data-name="Path 2104" d="M13.684,142.047h.4s.133-.066,0-.2-.4-.265-.2-.531c-.2,0-.465-.066-.4.531h-.2s-.066-.332-.532-.332a6.833,6.833,0,0,0-1.6.465,12.826,12.826,0,0,0,1.6.332.7.7,0,0,0,.532-.332h.134a1.1,1.1,0,0,0,.133.332v.4a.205.205,0,0,0-.133.265c0,.2.133.2.2.2s.067-.066.266-.066c.067-.066,0-.332-.133-.4v-.265s.133-.133.133-.2c-.066-.133-.2-.066-.2-.2" transform="translate(862.959 1093.064)" fill="#ec1c24"/>
    <path id="Path_2105" data-name="Path 2105" d="M16.75,144.125a.522.522,0,0,0,.2-.265v-1.129c0-.265-.466-.465-.533-.465a.5.5,0,0,1-.266.133.367.367,0,0,1-.333-.133c-.4,0-.6.465-.6.531a5.615,5.615,0,0,0,0,1.062.561.561,0,0,0,.2.332c-.067.265-.466,1.792.066,1.991v.265h1.331v-.265c.4-.332.066-1.659-.067-2.057m-1.53-1.394a.583.583,0,0,1,.466-.4.489.489,0,0,0,.4.132c.133,0,.266-.132.333-.132.133.066.4.2.4.4v1.129c0,.066-.067.132-.133.2h-.266v-.531h-.864v.465h-.2a.344.344,0,0,1-.132-.265v-1m.931,3.119h-.266a.133.133,0,1,1,0-.265h.266a.133.133,0,0,1,0,.265m.532.133-.665-.73-.6.73c-.4-.133-.133-1.327,0-1.858h1.264c.133.531.333,1.659,0,1.858" transform="translate(862.221 1092.844)" fill="#ec1c24"/>
    <path id="Path_2106" data-name="Path 2106" d="M16.534,145.273a.234.234,0,0,0-.066-.332h-.8c-.266,0-.2.332-.2.332l.466.4a1.058,1.058,0,0,0,.6-.4" transform="translate(862.171 1092.227)" fill="#ec1c24"/>
    <path id="Path_2107" data-name="Path 2107" d="M16.367,145.877l.466.531s-.067-.664-.067-.862c-.066.066-.4.332-.4.332" transform="translate(862.006 1092.088)" fill="#ec1c24"/>
    <path id="Path_2108" data-name="Path 2108" d="M15.537,145.545c0,.2-.066.862-.066.862l.466-.531a2.524,2.524,0,0,0-.4-.332" transform="translate(862.17 1092.088)" fill="#ec1c24"/>
    <path id="Path_2109" data-name="Path 2109" d="M16.513,143.693h.066v-.066a.065.065,0,0,0-.066-.067h-.732a.065.065,0,0,0-.066.067v.066h.8Z" transform="translate(862.125 1092.546)" fill="#ec1c24"/>
    <path id="Path_2110" data-name="Path 2110" d="M15.374,147.7h-.066v.066a.065.065,0,0,0,.066.067h1.331a.065.065,0,0,0,.066-.067V147.7h-1.4Z" transform="translate(862.199 1091.59)" fill="#ec1c24"/>
    <path id="Path_2111" data-name="Path 2111" d="M9.683,135.924s-5.256-11.48,6.986-18.846l2.927,5.375a13.479,13.479,0,0,0-4.124,2.522c-2.329,1.99-4.79,5.309-5.788,10.949" transform="translate(863.434 1098.656)" fill="#f6921e"/>
    <path id="Path_2112" data-name="Path 2112" d="M50.5,159.287v.862l.732-.265.2.2v.265a1,1,0,0,1-.266.73.771.771,0,0,1-.665.265.949.949,0,0,1-.8-.4,2.3,2.3,0,0,1-.466-.8l.2-.132c.266.73.6,1.062,1.065,1.062a.681.681,0,0,0,.665-.664.243.243,0,0,0-.066-.2l-.665.265-.2-.265v-.929H49.1v-.2h2.528v.2Z" transform="translate(856.017 1088.963)" fill="#231f20"/>
    <path id="Path_2113" data-name="Path 2113" d="M52.445,161.278v-1.991h-.333v-.2h.864v.2h-.266v1.991Z" transform="translate(855.466 1088.963)" fill="#231f20"/>
    <path id="Path_2114" data-name="Path 2114" d="M54.553,159.286v.133a1.075,1.075,0,0,1,.6.2c.2.132.333.265.333.465a.573.573,0,0,1-.2.4.945.945,0,0,1-.4.133h-.067v-.265h.133c.2,0,.266-.067.266-.265s-.2-.332-.665-.4v1.592h-.266l-.4-.6a.854.854,0,0,0-.665-.265l-.066-.332a8.151,8.151,0,0,1,1.131-.664v-.133h-1.2v-.2h2.529v.2Zm-.266.4a1.443,1.443,0,0,0-.333.2l-.333.332a.8.8,0,0,1,.333.332,2.584,2.584,0,0,1,.333.4Z" transform="translate(855.288 1088.963)" fill="#231f20"/>
    <path id="Path_2115" data-name="Path 2115" d="M59.77,158.371a2.134,2.134,0,0,0-1.065-.4,1.122,1.122,0,0,0-.665.2.647.647,0,0,0-.266.6h.266v.2h-.266v1.925h-.266v-1.925h-.266v-.2h.266a1.1,1.1,0,0,1,.333-.8,1.064,1.064,0,0,1,.8-.265,2.953,2.953,0,0,1,.665.133c.133.066.333.2.6.332Z" transform="translate(854.528 1089.281)" fill="#231f20"/>
    <path id="Path_2116" data-name="Path 2116" d="M60.134,159.266v1.991h-.266a2,2,0,0,0-.665-.6,1.612,1.612,0,0,0-.865-.265l-.066-.332a2.165,2.165,0,0,1,.8-.4c.133-.066.4-.133.864-.332V159.2h-1.8V159h2.329v.2h-.333Zm-.266.4a7.454,7.454,0,0,0-1.2.531,5.118,5.118,0,0,1,1.2.664Z" transform="translate(854.364 1088.983)" fill="#231f20"/>
    <path id="Path_2117" data-name="Path 2117" d="M60.825,159.088h2.462v.2H60.825Zm1.4,2.19a1.152,1.152,0,0,1-.8-.4,2.288,2.288,0,0,1-.466-.8l.133-.132a1.58,1.58,0,0,0,.4.73.811.811,0,0,0,.666.4.681.681,0,0,0,.665-.663.887.887,0,0,1-.533.2.715.715,0,0,1-.4-.132.573.573,0,0,1-.2-.4.943.943,0,0,1,.132-.4.563.563,0,0,1,.4-.133c.133,0,.2,0,.266.066a.347.347,0,0,1,.133.265.507.507,0,0,1-.133.266l-.2-.133c.067-.066.067-.066.067-.133a.143.143,0,0,0-.133-.132.235.235,0,0,0-.266.265.471.471,0,0,0,.4.4.607.607,0,0,0,.532-.265l.266.265a.766.766,0,0,1-.266.663,1.956,1.956,0,0,1-.665.2" transform="translate(853.872 1088.963)" fill="#231f20"/>
    <path id="Path_2118" data-name="Path 2118" d="M64.089,161.278v-1.991h-.333v-.2h.864v.2h-.333v1.991Z" transform="translate(853.336 1088.963)" fill="#231f20"/>
    <path id="Path_2119" data-name="Path 2119" d="M65.783,161.41a1.324,1.324,0,0,1-.6-.133,1.259,1.259,0,0,1-.333-.862,1.065,1.065,0,0,1,.2-.6,2.179,2.179,0,0,1,.4-.531h-.8v-.2h1.264v.2a.889.889,0,0,0-.533.464.95.95,0,0,0-.266.664c0,.531.2.8.665.8a.245.245,0,0,0,.2-.066v.265Z" transform="translate(853.172 1088.963)" fill="#231f20"/>
    <path id="Path_2120" data-name="Path 2120" d="M67.729,159.248v1.925h-.266v-1.261c0-.067-.066-.133-.133-.2a.639.639,0,0,0-.6-.4.505.505,0,0,0-.266.133l-.133.132a.505.505,0,0,1,.266-.066.6.6,0,0,1,.333.066.347.347,0,0,1,.133.265.574.574,0,0,1-.2.4c-.132.132-.266.265-.4.265l-.133-.2c.133-.066.2-.132.333-.2.133-.132.2-.2.2-.332,0-.066-.066-.132-.2-.132s-.2-.067-.266-.067h-.066l-.133-.265.266-.265c.133-.066.2-.132.333-.132a.845.845,0,0,1,.732.465v-.465H68v.2h-.266Z" transform="translate(852.889 1089.002)" fill="#231f20"/>
    <path id="Path_2121" data-name="Path 2121" d="M70.312,159.287v1.991h-.266a1.386,1.386,0,0,0-.665-.531,1.612,1.612,0,0,0-.865-.265l-.066-.332a9.225,9.225,0,0,1,1.6-.73v-.132h-1.73v-.2h2.262v.2Zm-.266.4a5.926,5.926,0,0,0-1.131.532,2.821,2.821,0,0,1,1.131.663Zm-.665,1.659a1.018,1.018,0,0,0-.4-.265l.133-.2a1.4,1.4,0,0,1,.4.265Z" transform="translate(852.502 1088.963)" fill="#231f20"/>
    <path id="Path_2122" data-name="Path 2122" d="M74.671,158.371a2.134,2.134,0,0,0-1.065-.4,1.122,1.122,0,0,0-.665.2.647.647,0,0,0-.266.6h.266v.2h-.266v1.925h-.266v-1.925h-.266v-.2h.266a1.1,1.1,0,0,1,.333-.8,1.064,1.064,0,0,1,.8-.265,2.953,2.953,0,0,1,.665.133c.133.066.333.2.6.332Z" transform="translate(851.802 1089.281)" fill="#231f20"/>
    <path id="Path_2123" data-name="Path 2123" d="M74.339,159.307v.862l.732-.265.2.2v.265a1,1,0,0,1-.266.73.771.771,0,0,1-.665.265.949.949,0,0,1-.8-.4,2.3,2.3,0,0,1-.466-.8l.2-.132c.266.73.6,1.062,1.065,1.062a.681.681,0,0,0,.665-.664.243.243,0,0,0-.066-.2l-.665.265-.266-.2v-.929H72.876v-.2H75.4v.2H74.339Z" transform="translate(851.668 1088.943)" fill="#231f20"/>
    <path id="Path_2124" data-name="Path 2124" d="M78.5,158.371a2.134,2.134,0,0,0-1.065-.4,1.122,1.122,0,0,0-.665.2.647.647,0,0,0-.266.6h.266v.2H76.5v1.925h-.266v-1.925H75.97v-.2h.266a1.1,1.1,0,0,1,.333-.8,1.064,1.064,0,0,1,.8-.265,2.953,2.953,0,0,1,.665.133c.133.066.333.2.6.332Z" transform="translate(851.102 1089.281)" fill="#231f20"/>
    <path id="Path_2125" data-name="Path 2125" d="M78.433,159.327a.535.535,0,0,0,.6.4h.133l.2.265a2.152,2.152,0,0,0-.2.663,1.419,1.419,0,0,0,.133.664l-.2.066a1.066,1.066,0,0,1-.2-.6.845.845,0,0,1,.066-.4,2.638,2.638,0,0,1,.133-.4.758.758,0,0,1-.532-.2.768.768,0,0,1-.333-.465.808.808,0,0,0-.4.664.176.176,0,0,0,.2.2.246.246,0,0,0,.2-.066c.066-.066.133-.066.133-.132h.2c.066.066.066.2.066.4,0,.531-.266.73-.8.73a.727.727,0,0,1-.333-.066c-.066,0-.133-.066-.266-.133-.066-.132-.2-.332-.333-.6l.133-.133a2.459,2.459,0,0,0,.4.664l.2.066a.243.243,0,0,0,.2.067.952.952,0,0,0,.4-.133c.133-.066.133-.2.133-.332a.242.242,0,0,0-.067-.2.578.578,0,0,1-.4.2.513.513,0,0,1-.333-.133.507.507,0,0,1-.132-.332.808.808,0,0,1,.266-.6h-1v-.2H79.43v.2h-1Z" transform="translate(850.967 1088.923)" fill="#231f20"/>
    <path id="Path_2126" data-name="Path 2126" d="M80.522,159.068v1.725h.133a1.487,1.487,0,0,0,.665-.2.622.622,0,0,0,.4-.531.314.314,0,0,0-.333-.332,1.127,1.127,0,0,0-.333.132l-.132-.2a.718.718,0,0,1,.532-.132.575.575,0,0,1,.4.2.943.943,0,0,1,.132.4.915.915,0,0,1-.333.6,1.2,1.2,0,0,1-.6.265,2.284,2.284,0,0,1-.731.066v-1.991h-.2v-.2h1.53V158.8a.363.363,0,0,0-.2-.332.942.942,0,0,0-.4-.133,1.237,1.237,0,0,0-.731.265l-.067-.2a1.619,1.619,0,0,1,.865-.265,1.081,1.081,0,0,1,.6.2.818.818,0,0,1,.266.531h.266v.2Z" transform="translate(850.342 1089.182)" fill="#231f20"/>
    <path id="Path_2127" data-name="Path 2127" d="M82.817,161.278v-1.991h-.333v-.2h.931v.2h-.333v1.991Z" transform="translate(849.91 1088.963)" fill="#231f20"/>
    <path id="Path_2128" data-name="Path 2128" d="M85.887,159.307V161.3H85.62v-.4c0-.465-.133-.663-.333-.663-.066,0-.133.066-.2.132s-.067.133-.067.265h-.266c0-.066-.067-.2-.067-.265a.333.333,0,0,0-.532,0,.4.4,0,0,0-.067.265c0,.265.133.332.466.332h.067l-.067.265h-.066a.664.664,0,0,1,0-1.328c.2,0,.333.133.466.332a.689.689,0,0,1,.466-.332c.133,0,.266.133.333.332v-.863H83.625v-.2h2.594v.2h-.333Z" transform="translate(849.701 1088.943)" fill="#231f20"/>
    <path id="Path_2129" data-name="Path 2129" d="M88.205,160.415a.845.845,0,0,0,.066.4.341.341,0,0,0,.333.265.244.244,0,0,0,.2-.067l.066.2a.4.4,0,0,1-.266.066c-.4,0-.666-.332-.666-1a1.7,1.7,0,0,1,.732-1.194h.4v.2a.967.967,0,0,0-.6.4,1,1,0,0,0-.266.73" transform="translate(848.912 1088.963)" fill="#231f20"/>
    <path id="Path_2130" data-name="Path 2130" d="M91.5,159.307V161.3h-.266v-.4c0-.465-.133-.663-.333-.663-.066,0-.133.066-.2.132s-.067.133-.067.265h-.266c0-.066-.067-.2-.067-.265a.333.333,0,0,0-.532,0,.4.4,0,0,0-.066.265c0,.265.132.332.465.332h.067l-.067.265h-.066a.664.664,0,0,1,0-1.328c.2,0,.333.133.466.332a.689.689,0,0,1,.466-.332c.133,0,.266.133.333.332v-.863H89.243v-.2h2.594v.2H91.5Z" transform="translate(848.673 1088.943)" fill="#231f20"/>
    <path id="Path_2131" data-name="Path 2131" d="M94.221,159.267v1.991h-.266v-.133a.919.919,0,0,0-.333-.6,1.1,1.1,0,0,0-.6-.332.4.4,0,0,0-.266.066c-.067.066-.133.132-.133.2s0,.2.066.2c.067.066.133.066.266.066a.245.245,0,0,0,.2-.066l.067.265a.5.5,0,0,1-.333.066.575.575,0,0,1-.4-.2.944.944,0,0,1-.133-.4.561.561,0,0,1,.133-.4.575.575,0,0,1,.4-.2,1.119,1.119,0,0,1,1,.664V159.2h-1.8V159h2.262v.2h-.133Z" transform="translate(848.152 1088.983)" fill="#231f20"/>
    <path id="Path_2132" data-name="Path 2132" d="M95.911,161.41a1.324,1.324,0,0,1-.6-.133,1.259,1.259,0,0,1-.333-.862,1.065,1.065,0,0,1,.2-.6,2.179,2.179,0,0,1,.4-.531h-.8v-.2h1.264v.2a.889.889,0,0,0-.533.464.95.95,0,0,0-.266.664c0,.531.2.8.665.8a.245.245,0,0,0,.2-.066v.265Z" transform="translate(847.66 1088.963)" fill="#231f20"/>
    <path id="Path_2133" data-name="Path 2133" d="M96.385,159.287v.862a3.738,3.738,0,0,1,1-.531l.266.332a2,2,0,0,0-.2.73,2.034,2.034,0,0,0,.133.531l-.2.066a3,3,0,0,1-.132-.531,3.238,3.238,0,0,1,.066-.8,5.082,5.082,0,0,0-1,.663l-.2-.2v-1.128h-.2v-.2h1.929v.2Z" transform="translate(847.452 1088.963)" fill="#231f20"/>
    <path id="Path_2134" data-name="Path 2134" d="M100.165,159.267v1.991H99.9v-.133a.919.919,0,0,0-.333-.6,1.1,1.1,0,0,0-.6-.332.4.4,0,0,0-.266.066c-.067.066-.133.132-.133.2s0,.2.066.2c.067.066.133.066.266.066a.245.245,0,0,0,.2-.066l.067.265a.5.5,0,0,1-.333.066.575.575,0,0,1-.4-.2.486.486,0,0,1-.133-.4.557.557,0,0,1,.133-.4.575.575,0,0,1,.4-.2,1.119,1.119,0,0,1,1,.664V159.2h-1.8V159H100.3v.2h-.133Z" transform="translate(847.065 1088.983)" fill="#231f20"/>
  </g>
</svg>
