<svg id="Group_6335" data-name="Group 6335" xmlns="http://www.w3.org/2000/svg" xmlns:xlink="http://www.w3.org/1999/xlink" width="50.793" height="35.595" viewBox="0 0 50.793 35.595">
  <defs>
    <clipPath id="clip-path">
      <rect id="Rectangle_3106" data-name="Rectangle 3106" width="50.793" height="35.595" fill="#f85606"/>
    </clipPath>
  </defs>
  <g id="Group_6334" data-name="Group 6334" clip-path="url(#clip-path)">
    <path id="Path_1979" data-name="Path 1979" d="M31.752,6.083H18.713V1.464A1.464,1.464,0,0,0,16.4.274L.484,11.584a1.154,1.154,0,0,0,0,1.879L16.4,24.773a1.464,1.464,0,0,0,2.315-1.189V18.936H25.4l.4-.139v-2l-.4-.139H16.444v5.355L3.091,12.524,16.444,3.034V8.362H31.752a1.139,1.139,0,0,0,0-2.279" transform="translate(0 0)" fill="#f85606"/>
    <path id="Path_1980" data-name="Path 1980" d="M25.8,124.959v2l-.4.139H18.713v4.647a1.464,1.464,0,0,1-2.315,1.189L.484,121.625A1.146,1.146,0,0,1,0,120.686H3.091l13.353,9.49V124.82H25.4Z" transform="translate(0 -108.162)" fill="#f85606"/>
    <path id="Path_1981" data-name="Path 1981" d="M204.953,113.226l-15.915-11.309a1.464,1.464,0,0,0-2.315,1.189v4.647H180.04v2.278h8.953v-5.355l13.353,9.49-13.353,9.491v-5.328H173.685a1.139,1.139,0,0,0,0,2.279h13.038v4.619a1.464,1.464,0,0,0,2.315,1.19l15.915-11.31a1.154,1.154,0,0,0,0-1.879" transform="translate(-154.643 -91.094)" fill="#f85606"/>
    <path id="Path_1982" data-name="Path 1982" d="M205.436,222.313a1.147,1.147,0,0,1-.484.94l-15.915,11.31a1.464,1.464,0,0,1-2.315-1.19v-4.619H173.684a1.139,1.139,0,0,1,0-2.279h15.308V231.8l13.353-9.491Z" transform="translate(-154.642 -199.242)" fill="#f85606"/>
  </g>
</svg>
