<svg xmlns="http://www.w3.org/2000/svg" width="82.563" height="48.789" viewBox="0 0 82.563 48.789">
  <g id="Group_6615" data-name="Group 6615" transform="translate(-865 -1278.247)">
    <path id="Path_2141" data-name="Path 2141" d="M69.54,204.67l-12.2,11.45.856,6.428,2.248-4.418,6.955,8.337,9.738-28.125L44.711,211l8.775,4.318Z" transform="translate(856.82 1079.906)" fill="#8c3494" fill-rule="evenodd"/>
    <path id="Path_2142" data-name="Path 2142" d="M57.525,232.683H44.683c-9.792,1.405-10.808,14.766-.106,16.575h12.95V237.2a3.764,3.764,0,0,1,2.033,7.03c.641.7,3.21,3.314,3.21,3.314,6.737-5.456,2.886-14.431-5.245-14.865m-4.707,12.054H45.649a3.773,3.773,0,0,1-.43-7.533h7.6Z" transform="translate(858.242 1071.982)" fill="#8c3494"/>
    <path id="Path_2143" data-name="Path 2143" d="M91.46,236.362h-4.71l-2.033,4.421h5.993a.856.856,0,1,1,0,1.706H80.332v-7.632H96.278v-4.521H93.924c-.7-9.342-12.6-9.617-15.731-4.521.614.477,3.53,2.913,3.53,2.913,1.79-2.638,6.767-2.51,7.49,1.607H75.621v16.574h15.3a5.36,5.36,0,0,0,5.458-4.521,5.53,5.53,0,0,0-4.922-6.026" transform="translate(851.165 1074.329)" fill="#8c3494" fill-rule="evenodd"/>
    <path id="Path_2144" data-name="Path 2144" d="M36.97,232.684H30.762c-1.979,2.26-5.4,11.4,1.391,18.281,0,0,2.943-2.359,3.53-2.812a10.647,10.647,0,0,1,1.286-15.469" transform="translate(859.855 1071.981)" fill="#8c3494" fill-rule="evenodd"/>
    <path id="Path_2145" data-name="Path 2145" d="M17.871,255.557a3.777,3.777,0,0,1-3.889,3.651,3.659,3.659,0,1,1,0-7.3,3.78,3.78,0,0,1,3.889,3.653" transform="translate(863.154 1067.547)" fill="#8c3494" fill-rule="evenodd"/>
    <path id="Path_2146" data-name="Path 2146" d="M7.744,232.683c-9.792,1.405-10.808,14.766-.106,16.575h.071a4.871,4.871,0,0,1,4.424-2.687,4.874,4.874,0,0,1,4.424,2.687h4.027V232.683Zm8.135,12.054H8.71a3.773,3.773,0,0,1-.427-7.533h7.6v7.533Z" transform="translate(865 1071.982)" fill="#8c3494" fill-rule="evenodd"/>
    <path id="Path_2147" data-name="Path 2147" d="M14.131,226.4a2.045,2.045,0,0,0-.215-3.966H9.742v5.775h1.712V226.4l1.927,1.809h2.677Zm-.2-2.04a.394.394,0,0,1-.4.38H11.476v-.8h2.047a.394.394,0,0,1,.4.38Z" transform="translate(863.218 1074.347)" fill="#8c3494" fill-rule="evenodd"/>
    <path id="Path_2148" data-name="Path 2148" d="M20.419,222.314a2.932,2.932,0,1,0,3.117,2.926,3.026,3.026,0,0,0-3.117-2.926m0,4.212a1.288,1.288,0,1,1,1.37-1.286,1.332,1.332,0,0,1-1.37,1.286" transform="translate(861.835 1074.374)" fill="#8c3494" fill-rule="evenodd"/>
    <path id="Path_2149" data-name="Path 2149" d="M42.106,223.967h2.8v-1.7H42.536a2.966,2.966,0,1,0,0,5.872h2.372v-1.7h-2.8a1.312,1.312,0,0,1-1.013-.469h3.815v-1.542H41.093a1.312,1.312,0,0,1,1.013-.468" transform="translate(857.838 1074.384)" fill="#8c3494" fill-rule="evenodd"/>
    <path id="Path_2150" data-name="Path 2150" d="M28.436,226.444a1.253,1.253,0,0,1-1.285-1.206v-.067a1.252,1.252,0,0,1,1.285-1.206H31.1v-1.7H28.71a2.966,2.966,0,1,0,0,5.872H31.1v-1.7Z" transform="translate(860.368 1074.385)" fill="#8c3494" fill-rule="evenodd"/>
    <path id="Path_2151" data-name="Path 2151" d="M52.811,222.417H46.773v1.518h2.213v4.15H50.6v-4.15h2.209Z" transform="translate(856.443 1074.35)" fill="#8c3494" fill-rule="evenodd"/>
    <path id="Path_2152" data-name="Path 2152" d="M35.962,225.228l2.973-2.812H36.527L34.855,224v-1.581H33.238v5.668h1.617V226.46l1.718,1.625h2.4Z" transform="translate(858.919 1074.35)" fill="#8c3494"/>
    <path id="Path_2153" data-name="Path 2153" d="M66.01,257.748a1.16,1.16,0,0,0-.7.472,1.241,1.241,0,0,0-.293.765,1.053,1.053,0,0,0,.1.451c.087.186.2.278.354.278a.584.584,0,0,0,.293-.115l.169.421a.89.89,0,0,1-.444.128.913.913,0,0,1-.562-.2,1.1,1.1,0,0,1-.3-.451,1.319,1.319,0,0,1-.071-.493v-.153a1.853,1.853,0,0,1,.584-1.162,4.6,4.6,0,0,1,.416-.377h.611v.418a.917.917,0,0,1-.159.022" transform="translate(853.189 1066.3)" fill="#8c3494"/>
    <path id="Path_2154" data-name="Path 2154" d="M68.99,257.736v2.385h-.508v-.309c0-.107-.087-.242-.258-.408a2.955,2.955,0,0,0-.408-.329.933.933,0,0,0-.516-.153.436.436,0,0,0-.413.229.119.119,0,0,0-.016.064.212.212,0,0,0,.1.171.326.326,0,0,0,.2.077,1.681,1.681,0,0,0,.386-.112l.15.434a1.362,1.362,0,0,1-.569.164.862.862,0,0,1-.465-.132.8.8,0,0,1-.307-.352.551.551,0,0,1-.043-.232.68.68,0,0,1,.355-.618,1,1,0,0,1,.53-.153h.049a.491.491,0,0,0-.141-.281.365.365,0,0,0-.264-.155h-.562v-.293h-.226v-.419h3.272v.419H68.99Zm-.508,0h-1.2a.973.973,0,0,1,.527.806,1.92,1.92,0,0,1,.668.472Z" transform="translate(852.913 1066.299)" fill="#8c3494"/>
    <path id="Path_2155" data-name="Path 2155" d="M70.657,257.738v2.385h-.508v-2.385h-.375v-.418H71v.418Z" transform="translate(852.235 1066.297)" fill="#8c3494"/>
    <path id="Path_2156" data-name="Path 2156" d="M73.343,257.737H71.052v-.418h3.169v.418H73.87v2.385h-.449q-.065-.183-.661-.568a3.228,3.228,0,0,0-.672-.306,2.372,2.372,0,0,0-.726-.158l-.136-.475a5.823,5.823,0,0,1,.984-.459c.23-.1.608-.235,1.132-.419m.029.516c-.1.031-.2.064-.3.1-.161.066-.449.185-.87.357l-.1.041a4.353,4.353,0,0,1,1.152.584l.119.084Z" transform="translate(852.001 1066.297)" fill="#8c3494"/>
    <path id="Path_2157" data-name="Path 2157" d="M75.518,257.738v2.385H75.01v-2.385h-.375v-.418h1.223v.418Z" transform="translate(851.346 1066.297)" fill="#8c3494"/>
    <path id="Path_2158" data-name="Path 2158" d="M75.91,257.464v-.418h1.5a.237.237,0,0,0,.007-.036.417.417,0,0,0-.329-.431.388.388,0,0,0-.1-.01.863.863,0,0,0-.2.03c-.109.028-.175.044-.194.046a.6.6,0,0,0-.226.077,1.807,1.807,0,0,1-.285.145l-.163-.355a2.843,2.843,0,0,1,.766-.323,1.427,1.427,0,0,1,.377-.054.922.922,0,0,1,.427.128.858.858,0,0,1,.422.783H78.2v.418Zm1.767,2.785a6.625,6.625,0,0,0-.658-.49,2.789,2.789,0,0,0-.558-.242,2.155,2.155,0,0,0-.361-.1l.006-.558q.065,0,.2.007c.087.005.154.008.2.008a1.551,1.551,0,0,0,.562-.085c.275-.107.41-.235.41-.382a.314.314,0,0,0-.157-.268c-.1-.056-.2-.11-.307-.161a.212.212,0,0,0-.087-.02.566.566,0,0,0-.2.043c-.09.038-.131.085-.126.132.019.125.158.175.416.155l-.275.4a.553.553,0,0,1-.34-.1.569.569,0,0,1-.312-.485.493.493,0,0,1,.318-.447,1.287,1.287,0,0,1,.595-.132.664.664,0,0,1,.25.043c.071.031.141.064.215.1a.8.8,0,0,1,.519.752.689.689,0,0,1-.318.585,1.708,1.708,0,0,1-.7.242c.09.041.221.108.389.2a7.432,7.432,0,0,1,.7.548Z" transform="translate(851.113 1066.57)" fill="#8c3494"/>
    <path id="Path_2159" data-name="Path 2159" d="M81.712,257.738v2.385H81.2v-.947a.4.4,0,0,0-.114-.255.325.325,0,0,0-.242-.13.293.293,0,0,0-.226.138.5.5,0,0,0-.109.313h-.548a.55.55,0,0,0-.109-.342.305.305,0,0,0-.25-.144.383.383,0,0,0-.229.08.265.265,0,0,0-.119.184l-.016.125v.048c0,.245.16.367.479.367a1.9,1.9,0,0,0,.257-.031l-.179.482c-.1.011-.168.018-.19.018a1,1,0,0,1-.658-.248.69.69,0,0,1-.2-.288.907.907,0,0,1-.07-.336.828.828,0,0,1,.252-.628.925.925,0,0,1,.666-.24.788.788,0,0,1,.645.342.788.788,0,0,1,.605-.342.507.507,0,0,1,.345.154v-.7h-2.74v-.418H82v.418h-.289Z" transform="translate(850.646 1066.297)" fill="#8c3494"/>
    <path id="Path_2160" data-name="Path 2160" d="M86.6,257.737H84.3v-.418h3.169v.418h-.354v2.385h-.448q-.065-.183-.661-.568a3.248,3.248,0,0,0-.672-.306,2.381,2.381,0,0,0-.726-.158l-.136-.475a5.858,5.858,0,0,1,.984-.459c.233-.1.61-.235,1.135-.419m.029.516c-.1.031-.2.064-.3.1-.161.066-.449.185-.87.357l-.1.041a4.353,4.353,0,0,1,1.152.584l.119.084Z" transform="translate(849.577 1066.297)" fill="#8c3494"/>
    <path id="Path_2161" data-name="Path 2161" d="M88.986,257.737a.945.945,0,0,0-.243.518,4.6,4.6,0,0,0,.248.755,1.615,1.615,0,0,1,.128.551c0,.278-.166.472-.5.582a2.439,2.439,0,0,1-.541.09l.068-.414c.3-.058.451-.158.451-.3a1.6,1.6,0,0,0-.187-.6,1.616,1.616,0,0,1-.187-.592,1.211,1.211,0,0,1,.218-.6h-.53v-.418h1.418v.418h-.345v0Z" transform="translate(848.917 1066.298)" fill="#8c3494"/>
    <path id="Path_2162" data-name="Path 2162" d="M90.362,257.738v2.385H89.85v-2.385h-.375v-.418H90.7v.418Z" transform="translate(848.631 1066.297)" fill="#8c3494"/>
    <path id="Path_2163" data-name="Path 2163" d="M91.817,258.89a.784.784,0,0,1-.574-.212.727.727,0,0,1-.215-.544.675.675,0,0,1,.221-.513.781.781,0,0,1,.552-.207.67.67,0,0,1,.646.421.819.819,0,0,1,.087.352.689.689,0,0,1-.187.51.7.7,0,0,1-.531.192m.557,1.535a8.267,8.267,0,0,0-1.313-.918l.006-.661a7.975,7.975,0,0,1,1.74,1.424v.489Zm-.451-2.508a.23.23,0,0,0-.153-.041c-.193.031-.288.12-.288.268a.3.3,0,0,0,.1.212.3.3,0,0,0,.215.1l.071-.01c.144-.044.217-.125.217-.248a.321.321,0,0,0-.159-.278" transform="translate(848.347 1066.275)" fill="#8c3494"/>
    <path id="Path_2164" data-name="Path 2164" d="M96.354,256.667a3.1,3.1,0,0,0-1.454-.525,1.171,1.171,0,0,0-.981.4.711.711,0,0,0-.119.406h.355v.418H93.8v2.385h-.516v-2.385h-.34v-.418h.34a1.124,1.124,0,0,1,.355-.824,1.6,1.6,0,0,1,.924-.39c.04,0,.114-.013.228-.026H94.9a2.437,2.437,0,0,1,.923.188,9.137,9.137,0,0,1,.816.437Z" transform="translate(847.996 1066.67)" fill="#8c3494"/>
    <path id="Path_2165" data-name="Path 2165" d="M96.126,257.737v.015a1.656,1.656,0,0,1,.663.188.753.753,0,0,1,.487.676.627.627,0,0,1-.163.431.783.783,0,0,1-.424.239,1.079,1.079,0,0,1-.446.018v-.452a1.208,1.208,0,0,0,.161.011c.255,0,.383-.087.383-.258q0-.306-.661-.387v1.9h-.449a1.282,1.282,0,0,0-.217-.305c-.025-.026-.09-.1-.2-.238a.96.96,0,0,0-.179-.164,1,1,0,0,1-.18-.164.268.268,0,0,0-.119-.064,1.883,1.883,0,0,0-.535-.11l-.136-.474c.112-.077.364-.218.758-.426.03-.021.15-.087.359-.2.076-.043.2-.112.381-.207v-.036H94v-.418h3.49v.418Zm-.508.551c-.082.058-.209.138-.378.238a.552.552,0,0,0-.15.1c-.057.051-.109.1-.161.141.055.046.141.11.261.194.111.12.255.265.426.441v-1.115Z" transform="translate(847.802 1066.298)" fill="#8c3494"/>
    <path id="Path_2166" data-name="Path 2166" d="M99.035,258.89a.784.784,0,0,1-.574-.212.727.727,0,0,1-.215-.544.675.675,0,0,1,.221-.513.781.781,0,0,1,.552-.207.672.672,0,0,1,.647.421.83.83,0,0,1,.087.352.689.689,0,0,1-.187.51.7.7,0,0,1-.531.192m.554,1.535a8.312,8.312,0,0,0-1.312-.918l.006-.661a8,8,0,0,1,1.74,1.424v.489Zm-.448-2.508a.23.23,0,0,0-.153-.041c-.193.031-.288.12-.288.268a.3.3,0,0,0,.1.212.3.3,0,0,0,.215.1l.071-.01c.144-.044.217-.125.217-.248a.323.323,0,0,0-.159-.278" transform="translate(847.026 1066.275)" fill="#8c3494"/>
    <path id="Path_2167" data-name="Path 2167" d="M30.441,261.136l.949.3.378-.3-.947-.312Z" transform="translate(859.431 1065.488)" fill="#8c3494"/>
    <path id="Path_2168" data-name="Path 2168" d="M29.161,257.862v-.538H21.725v.538h1.25v1.2h1.074s.3-.092.378-.237v.474a.391.391,0,0,1-.378.4H22.469c-.1,0-.19-.041-.19-.4v-1.119h-.555v1.436c0,.118.079.538.479.538h2.139a.656.656,0,0,0,.59-.6v-1.377h-.5c-.051.212-.022.355-.253.408h-.63v-.727h1.832v2.294h.63v-2.294h.444v2.294h2.083a.631.631,0,0,0,.631-.618v-1.357h-.506c0,.132-.021.329-.252.329H27.017v-.648Zm-.82,1.122c.1.026.221-.118.315-.238v.554a.4.4,0,0,1-.315.4H27.014v-.712Z" transform="translate(861.026 1066.296)" fill="#8c3494"/>
    <rect id="Rectangle_3210" data-name="Rectangle 3210" width="1.264" height="0.632" transform="translate(890.883 1324.805)" fill="#8c3494"/>
    <path id="Path_2169" data-name="Path 2169" d="M34.076,257.322v.538h2.079v.319H34.076v1.278a.683.683,0,0,0,.7.7h1.882v-2.294H37.1v2.294h.569v-2.832h-3.6Zm2.079,2.452H34.891a.443.443,0,0,1-.315-.475v-.632h1.579Z" transform="translate(858.766 1066.297)" fill="#8c3494"/>
    <path id="Path_2170" data-name="Path 2170" d="M41.814,257.862H44.39v.319h-.758a.256.256,0,0,1-.5,0H41.814v1.357c0,.132.022.564.408.618h1.034v-.46h-.694a.3.3,0,0,1-.253-.316v-.712H43v.4h.631v-.316c-.043-.145.663-.132.7,0v1.409H44.9v-2.294h.378v2.294h.569v-2.832H41.817v.538Z" transform="translate(857.35 1066.296)" fill="#8c3494"/>
    <path id="Path_2171" data-name="Path 2171" d="M40.415,257.528H39.073v.742a.635.635,0,0,0,.647.554h1.074v-.916a.449.449,0,0,0-.378-.38m-.408.794c-.243,0-.437-.084-.437-.186s.2-.185.437-.185.437.084.437.185-.194.186-.437.186" transform="translate(857.852 1066.249)" fill="#8c3494"/>
    <path id="Path_2172" data-name="Path 2172" d="M39.186,259.578v.467l1.619.629v-.495Z" transform="translate(857.831 1065.776)" fill="#8c3494"/>
    <path id="Path_2173" data-name="Path 2173" d="M57.063,257.528H55.721v.742a.635.635,0,0,0,.647.554h1.074v-.916a.453.453,0,0,0-.378-.38m-.408.794c-.243,0-.437-.084-.437-.186s.2-.185.437-.185.437.084.437.185-.194.186-.437.186" transform="translate(854.806 1066.249)" fill="#8c3494"/>
    <path id="Path_2174" data-name="Path 2174" d="M55.831,259.578v.467l1.622.629v-.495Z" transform="translate(854.786 1065.776)" fill="#8c3494"/>
    <path id="Path_2175" data-name="Path 2175" d="M61,258.18v-.318h1.047v-.539H58.414v.539h2.08v.318H58.415v1.278a.683.683,0,0,0,.7.7H61v-1.408h.5c.085,0,.106-.041.125.079v.238c-.033.117-.043.2-.125.238H61.32v.474H61.7c.125-.013.358-.145.378-.316v-1.278H61Zm-.5,1.594H59.234a.442.442,0,0,1-.315-.475v-.632h1.568l.008.08Z" transform="translate(854.313 1066.296)" fill="#8c3494"/>
    <path id="Path_2176" data-name="Path 2176" d="M48.824,257.322v.538H50.9v.319H48.824v1.278a.681.681,0,0,0,.7.7H51.41v-2.294h.658l-.239.449v.316h.443c.234.026.315.172.315.554,0,.262-.065.454-.283.475h-.413v.474h.443c.126,0,.7.054.759-.474.062-1.069.117-1.345-.7-1.424l.119-.37h.888v2.294h.568v-2.832H48.824Zm2.079,2.452H49.639a.443.443,0,0,1-.315-.475v-.632H50.9Z" transform="translate(856.068 1066.297)" fill="#8c3494"/>
  </g>
</svg>
