<svg id="Group_6331" data-name="Group 6331" xmlns="http://www.w3.org/2000/svg" xmlns:xlink="http://www.w3.org/1999/xlink" width="33.757" height="39.092" viewBox="0 0 33.757 39.092">
  <defs>
    <clipPath id="clip-path">
      <rect id="Rectangle_3104" data-name="Rectangle 3104" width="33.757" height="39.092" fill="#f85606"/>
    </clipPath>
  </defs>
  <g id="Group_6330" data-name="Group 6330" clip-path="url(#clip-path)">
    <path id="Subtraction_1" data-name="Subtraction 1" d="M-134.448-1890.908h0a19.762,19.762,0,0,1-8.439-4.414,22.525,22.525,0,0,1-5.8-7.945,34.177,34.177,0,0,1-2.637-13.929v-6.305h.006a25.358,25.358,0,0,0,12.471-3.248,20.244,20.244,0,0,0,4.4-3.25,22.707,22.707,0,0,0,4.547,3.25,25.537,25.537,0,0,0,12.331,3.249v6.305a34.179,34.179,0,0,1-2.637,13.929,22.525,22.525,0,0,1-5.8,7.945,19.757,19.757,0,0,1-8.439,4.413Zm-5.118-18.815-3.074,3.073,5.606,5.606,10.961-14.208-3.442-2.655-7.942,10.294-2.111-2.11Z" transform="translate(151.327 1930)" fill="#f85606" stroke="rgba(0,0,0,0)" stroke-width="1"/>
  </g>
</svg>
