<svg  xmlns="http://www.w3.org/2000/svg" width="46.28" height="46.28" viewBox="0 0 46.28 46.28">
  <path  id="Path_2020" data-name="Path 2020" d="M23.14,193.47a23.14,23.14,0,1,0,23.14,23.142A23.141,23.141,0,0,0,23.14,193.47M36.027,208.7a.626.626,0,0,1-.134.4,10.016,10.016,0,0,1-2.018,2.1c-.115.085-.3.175-.3.338,0,4.166-1.067,8.328-4.1,11.35a15.269,15.269,0,0,1-14.823,3.464,14.266,14.266,0,0,1-2.869-1.145c-.3-.167-.6-.338-.892-.531-.074-.059-.13-.115-.067-.152s.111-.033.342,0a10.137,10.137,0,0,0,4.288-.55c.751-.26,2.36-.788,2.824-1.5.011-.015.022-.015.033-.033-.19-.041-.375-.041-.561-.074a5.54,5.54,0,0,1-4.136-3.464c-.056-.138,0-.208.145-.182a6.051,6.051,0,0,0,1.966-.059,3.137,3.137,0,0,1-.665-.2,5.344,5.344,0,0,1-3.289-4.252,3.283,3.283,0,0,1-.033-.595c.011-.137.074-.182.193-.1a5.351,5.351,0,0,0,2.007.561c-.223-.175-.435-.368-.639-.561a5.274,5.274,0,0,1-.9-6.232c.1-.149.164-.149.286-.011a16.156,16.156,0,0,0,10.4,5.3c.108.015.119,0,.1-.123a5.562,5.562,0,0,1,.056-2.174,5.265,5.265,0,0,1,1.026-2.059,5.474,5.474,0,0,1,1.721-1.4,5.368,5.368,0,0,1,2.133-.6,5.16,5.16,0,0,1,2.248.36,5.453,5.453,0,0,1,1.464.9,2.312,2.312,0,0,1,.268.271.2.2,0,0,0,.208.056,13.147,13.147,0,0,0,3.025-1.16.142.142,0,0,1,.134-.011c.045.033.03.089.007.134a4.693,4.693,0,0,1-.847,1.546c-.242.3-.844,1.041-1.256,1.111a10.294,10.294,0,0,0,2.553-.728c.1-.045.1-.067.1,0Z" transform="translate(0 -193.47)" fill='#f85606'/>
</svg>
