<svg  xmlns="http://www.w3.org/2000/svg" width="46.28" height="46.28" viewBox="0 0 46.28 46.28">
  <g id="Group_6541" data-name="Group 6541" transform="translate(-532.964 -771.254)">
    <path  id="Path_2058" data-name="Path 2058" d="M148.468,149.082l11.824-6.132-11.824-6.17Z" transform="translate(402.657 651.15)" fill="#f85606"/>
    <path id="Path_2059" data-name="Path 2059" d="M23.14,0a23.14,23.14,0,1,0,23.14,23.14A23.14,23.14,0,0,0,23.14,0m14.478,31.49a3.611,3.611,0,0,1-1.673,1.689c-1.989,1.044-22.472,1.031-25.089.168A3.6,3.6,0,0,1,8.481,31.04c-1.028-2.828-1.332-14.655.647-16.985a3.836,3.836,0,0,1,2.585-1.373c5.334-.574,21.821-.492,23.722.192a3.717,3.717,0,0,1,2.333,2.244c1.125,2.923,1.164,13.556-.149,16.372" transform="translate(532.964 771.255)" fill='#f85606'/>
  </g>
</svg>
